<svg xmlns="http://www.w3.org/2000/svg" xmlns:xlink="http://www.w3.org/1999/xlink" viewBox="0 0 1632.53 1820.9"><defs><style>.cls-1{fill:#00263a;}.cls-2{fill:#c0efff;}.cls-3{fill:#fff;}.cls-4{fill:#0e67c9;}.cls-5{fill:url(#linear-gradient);}.cls-6{fill:url(#linear-gradient-2);}.cls-7{fill:url(#linear-gradient-3);}.cls-8{fill:url(#linear-gradient-4);}.cls-9{fill:url(#linear-gradient-5);}.cls-10{fill:url(#linear-gradient-6);}.cls-11{opacity:0.4;}</style><linearGradient id="linear-gradient" x1="785.17" y1="1057.32" x2="783.19" y2="469.47" gradientUnits="userSpaceOnUse"><stop offset="0" stop-color="#0e67c9"/><stop offset="1" stop-color="#27e2ec"/></linearGradient><linearGradient id="linear-gradient-2" x1="612.96" y1="628.41" x2="714.66" y2="780" gradientTransform="matrix(1, -0.07, 0.07, 1, 2.75, 47.62)" gradientUnits="userSpaceOnUse"><stop offset="0" stop-color="#efb920"/><stop offset="1" stop-color="#fd7909"/></linearGradient><linearGradient id="linear-gradient-3" x1="761.28" y1="722" x2="800.89" y2="841.31" gradientTransform="translate(-146.27 193.58) rotate(-17.09)" xlink:href="#linear-gradient-2"/><linearGradient id="linear-gradient-4" x1="708.37" y1="734.5" x2="924.74" y2="1080.69" gradientTransform="translate(-22.85 74.8) rotate(-6.14)" xlink:href="#linear-gradient-2"/><linearGradient id="linear-gradient-5" x1="936.79" y1="668.09" x2="918.66" y2="396.63" xlink:href="#linear-gradient"/><linearGradient id="linear-gradient-6" x1="850.7" y1="539.09" x2="841.52" y2="401.75" xlink:href="#linear-gradient"/></defs><title>Logo PGRecurso 4</title><g id="Capa_2" data-name="Capa 2"><g id="Capa_1-2" data-name="Capa 1"><path class="cls-1" d="M850.06,1812.29l168.39-91.66c378.22-205.86,614.08-605,614.08-1039.25V243c0-34.12-26.75-62.45-60.5-63.38-397.94-10.9-644.81-127-726.07-172a61.41,61.41,0,0,0-59.39,0c-81.26,45-328.13,161.06-726.07,172C26.75,180.55,0,208.88,0,243V681.38c0,434.23,235.86,833.39,614.08,1039.25l168.39,91.66A70.63,70.63,0,0,0,850.06,1812.29Z"/><path class="cls-2" d="M1551.82,294.61v372c0,414.11-223.84,793.14-584.15,989.3l-119.45,65a66.72,66.72,0,0,1-63.91,0l-119.45-65c-360.3-196.16-584.15-575.19-584.15-989.3v-372c0-17.6,13.93-32,31.47-33.25C451.16,238.31,683.91,148.49,801.69,91a32.51,32.51,0,0,1,29.15,0c117.78,57.54,350.59,147.36,689.51,170.41C1537.9,262.6,1551.82,277,1551.82,294.61Z"/><path class="cls-3" d="M1551.82,294.61v372c0,414.11-223.84,793.14-584.15,989.3l-119.45,65a66.93,66.93,0,0,1-32,8.15V87.5A32.67,32.67,0,0,1,830.84,91c117.78,57.54,350.59,147.36,689.51,170.41C1537.9,262.6,1551.82,277,1551.82,294.61Z"/><path class="cls-4" d="M390,1318.73v-88.26h36.74q11.4,0,19.65,3.84a29.12,29.12,0,0,1,12.74,11,34.82,34.82,0,0,1,0,34.17,29.17,29.17,0,0,1-12.74,11q-8.25,3.84-19.65,3.84H401l8.73-9.2v33.54Zm19.64-31.27-8.73-9.71h24.74c6.07,0,10.59-1.34,13.59-4s4.48-6.43,4.48-11.22-1.49-8.65-4.48-11.34-7.52-4-13.59-4H401l8.73-9.71Z"/><path class="cls-4" d="M499.43,1319.74a61.62,61.62,0,0,1-16.07-2.08,38.89,38.89,0,0,1-12.19-5.24l6.31-14.12a41,41,0,0,0,10.61,4.73,42,42,0,0,0,12.07,1.83c4.36,0,7.46-.55,9.28-1.64a5.05,5.05,0,0,0,2.73-4.54,3.87,3.87,0,0,0-2.13-3.59,17.94,17.94,0,0,0-5.64-1.83q-3.51-.63-7.7-1.26t-8.43-1.7a28.17,28.17,0,0,1-7.76-3.22,16.09,16.09,0,0,1-5.64-5.8,20.76,20.76,0,0,1,1.46-20.8,23.68,23.68,0,0,1,10.37-7.76,42,42,0,0,1,16.25-2.84,63.37,63.37,0,0,1,13.58,1.52,36.08,36.08,0,0,1,11.52,4.41l-6.3,14a31.39,31.39,0,0,0-9.52-4,42.8,42.8,0,0,0-9.28-1.07q-6.31,0-9.22,1.77a5.21,5.21,0,0,0-2.91,4.54,4.12,4.12,0,0,0,2.12,3.78,19.21,19.21,0,0,0,5.64,2c2.35.5,4.91.94,7.7,1.32a69.54,69.54,0,0,1,8.43,1.7,29.69,29.69,0,0,1,7.7,3.22,16.46,16.46,0,0,1,5.64,5.67,17.89,17.89,0,0,1,2.19,9.4,18.11,18.11,0,0,1-3.64,11.15,23.9,23.9,0,0,1-10.49,7.63A44.5,44.5,0,0,1,499.43,1319.74Z"/><path class="cls-4" d="M551.34,1241.44a11.69,11.69,0,0,1-8.49-3.16,11,11,0,0,1,0-15.63,11.73,11.73,0,0,1,8.49-3.15,12.21,12.21,0,0,1,8.49,3,9.84,9.84,0,0,1,3.27,7.63,11,11,0,0,1-3.21,8.13A11.55,11.55,0,0,1,551.34,1241.44Zm-9.46,77.29v-67.84H560.8v67.84Z"/><path class="cls-4" d="M609.92,1319.74a38.68,38.68,0,0,1-18.8-4.48,32.78,32.78,0,0,1-12.92-12.42,37.26,37.26,0,0,1,0-36.12,33,33,0,0,1,12.92-12.36,38.79,38.79,0,0,1,18.8-4.48,34.87,34.87,0,0,1,17.94,4.48,26.89,26.89,0,0,1,11.28,12.8l-14.67,8.19a17.51,17.51,0,0,0-6.37-7.06,16,16,0,0,0-8.31-2.27,17,17,0,0,0-8.73,2.27,16.15,16.15,0,0,0-6.12,6.43,23.75,23.75,0,0,0,0,20.18,16.08,16.08,0,0,0,6.12,6.43,17,17,0,0,0,8.73,2.27,16.33,16.33,0,0,0,8.31-2.21,16.82,16.82,0,0,0,6.37-7.12l14.67,8.32a27,27,0,0,1-11.28,12.67A34.77,34.77,0,0,1,609.92,1319.74Z"/><path class="cls-4" d="M680.26,1319.74a37.13,37.13,0,0,1-18.5-4.54A33.81,33.81,0,0,1,649,1302.78a37.14,37.14,0,0,1,0-36.06,33.29,33.29,0,0,1,12.73-12.36,40.29,40.29,0,0,1,36.93,0,33,33,0,0,1,12.74,12.29,37.7,37.7,0,0,1,0,36.13,33.34,33.34,0,0,1-12.74,12.42A37.18,37.18,0,0,1,680.26,1319.74Zm0-16.14a16.15,16.15,0,0,0,8.49-2.27,15.88,15.88,0,0,0,5.94-6.5,24.28,24.28,0,0,0,0-20.11,16.53,16.53,0,0,0-22.92-6.43,16.42,16.42,0,0,0-6,6.43,23.59,23.59,0,0,0,0,20.11,15.84,15.84,0,0,0,14.49,8.77Z"/><path class="cls-4" d="M728.65,1318.73v-93.56h18.92v93.56Z"/><path class="cls-4" d="M796.2,1319.74a37.09,37.09,0,0,1-18.49-4.54A33.84,33.84,0,0,1,765,1302.78a37.14,37.14,0,0,1,0-36.06,33.32,33.32,0,0,1,12.74-12.36,40.29,40.29,0,0,1,36.93,0,33,33,0,0,1,12.73,12.29,37.7,37.7,0,0,1,0,36.13,33.32,33.32,0,0,1-12.73,12.42A37.25,37.25,0,0,1,796.2,1319.74Zm0-16.14a16.15,16.15,0,0,0,8.49-2.27,15.82,15.82,0,0,0,5.94-6.5,24.18,24.18,0,0,0,0-20.11,16.53,16.53,0,0,0-22.92-6.43,16.42,16.42,0,0,0-6,6.43,23.59,23.59,0,0,0,0,20.11,15.84,15.84,0,0,0,14.49,8.77Zm-11.28-61.41L801.29,1224h20.38l-21.95,18.15Z"/><path class="cls-4" d="M872.37,1315.45a33.15,33.15,0,0,1-16.44-4.1,31.33,31.33,0,0,1-11.76-11.47,35.9,35.9,0,0,1,0-34.55,30.87,30.87,0,0,1,11.76-11.41,33.54,33.54,0,0,1,16.44-4,29.76,29.76,0,0,1,14.55,3.47,23.53,23.53,0,0,1,9.82,10.72q3.53,7.25,3.52,18.6t-3.52,18.47a23.83,23.83,0,0,1-9.82,10.78A29.35,29.35,0,0,1,872.37,1315.45Zm2.91,28.75a67.4,67.4,0,0,1-17.77-2.33,38,38,0,0,1-14.25-7l7.52-14.12a30.56,30.56,0,0,0,10.49,5.61,40.44,40.44,0,0,0,12.55,2.08q10.06,0,14.62-4.67T893,1309.9v-10.21l1.22-17-.25-17.15v-14.63H911.9v56.49q0,18.91-9.46,27.87T875.28,1344.2Zm.84-44.89a18.43,18.43,0,0,0,8.86-2.08,15.06,15.06,0,0,0,6.06-5.86,18.51,18.51,0,0,0,0-17.47,15.25,15.25,0,0,0-6.06-5.8,19.89,19.89,0,0,0-17.71,0,15.67,15.67,0,0,0-6.12,5.8,18.08,18.08,0,0,0,0,17.47,15.47,15.47,0,0,0,6.12,5.86A18.42,18.42,0,0,0,876.12,1299.31Z"/><path class="cls-4" d="M960.54,1319.74a37.13,37.13,0,0,1-18.5-4.54,33.81,33.81,0,0,1-12.73-12.42,37.14,37.14,0,0,1,0-36.06A33.29,33.29,0,0,1,942,1254.36a40.29,40.29,0,0,1,36.93,0,32.92,32.92,0,0,1,12.73,12.29,37.7,37.7,0,0,1,0,36.13A33.25,33.25,0,0,1,979,1315.2,37.21,37.21,0,0,1,960.54,1319.74Zm0-16.14a16.15,16.15,0,0,0,8.49-2.27,16,16,0,0,0,5.94-6.5,24.28,24.28,0,0,0,0-20.11,16.53,16.53,0,0,0-22.92-6.43,16.52,16.52,0,0,0-6,6.43,23.69,23.69,0,0,0,0,20.11,16.31,16.31,0,0,0,6,6.5A16.1,16.1,0,0,0,960.54,1303.6Z"/><path class="cls-4" d="M1030.88,1319.74a61.62,61.62,0,0,1-16.07-2.08,38.78,38.78,0,0,1-12.19-5.24l6.31-14.12a40.81,40.81,0,0,0,10.61,4.73,42,42,0,0,0,12.07,1.83q6.54,0,9.27-1.64a5.05,5.05,0,0,0,2.73-4.54,3.88,3.88,0,0,0-2.12-3.59,18,18,0,0,0-5.64-1.83c-2.35-.42-4.91-.84-7.7-1.26s-5.6-1-8.43-1.7a28,28,0,0,1-7.76-3.22,16.09,16.09,0,0,1-5.64-5.8,20.78,20.78,0,0,1,1.45-20.8,23.74,23.74,0,0,1,10.37-7.76,42.12,42.12,0,0,1,16.26-2.84,63.37,63.37,0,0,1,13.58,1.52,36.08,36.08,0,0,1,11.52,4.41l-6.31,14a31.18,31.18,0,0,0-9.52-4,42.64,42.64,0,0,0-9.27-1.07q-6.32,0-9.22,1.77a5.21,5.21,0,0,0-2.91,4.54,4.1,4.1,0,0,0,2.12,3.78,19,19,0,0,0,5.64,2q3.51.75,7.7,1.32a69.54,69.54,0,0,1,8.43,1.7,29.69,29.69,0,0,1,7.7,3.22,16.63,16.63,0,0,1,5.64,5.67,19.92,19.92,0,0,1-1.46,20.55,23.79,23.79,0,0,1-10.49,7.63A44.41,44.41,0,0,1,1030.88,1319.74Z"/><path class="cls-4" d="M1140,1319.74a40.77,40.77,0,0,1-19.59-4.54,32.8,32.8,0,0,1-13-12.42,34.94,34.94,0,0,1-4.61-18,35.54,35.54,0,0,1,4.55-18.09,32.86,32.86,0,0,1,12.43-12.36,37.57,37.57,0,0,1,35.11-.25,31,31,0,0,1,12.19,12.1q4.48,7.89,4.49,18.85c0,.76,0,1.62-.12,2.59s-.16,1.87-.24,2.71h-53v-11.48h43l-7.27,3.41a19.43,19.43,0,0,0-2.07-9.21,15.34,15.34,0,0,0-5.7-6.11,16,16,0,0,0-8.49-2.21,16.4,16.4,0,0,0-8.55,2.21,15.22,15.22,0,0,0-5.76,6.18,20.19,20.19,0,0,0-2.06,9.39v3a19.63,19.63,0,0,0,2.37,9.77,15.62,15.62,0,0,0,6.67,6.43,21.89,21.89,0,0,0,10.12,2.21,23.77,23.77,0,0,0,9.16-1.64,22.2,22.2,0,0,0,7.22-4.92l10.06,11.35a29.3,29.3,0,0,1-11.28,8.13A40.33,40.33,0,0,1,1140,1319.74Z"/><path class="cls-4" d="M1223.83,1249.88a29.48,29.48,0,0,1,13.89,3.22,22.89,22.89,0,0,1,9.64,9.83q3.51,6.63,3.52,17v38.84H1232v-35.81q0-8.19-3.46-12.1t-9.76-3.91a16.61,16.61,0,0,0-8.07,1.95,13.44,13.44,0,0,0-5.58,6,23.34,23.34,0,0,0-2,10.34v33.54h-18.92v-67.84h18.07v18.79l-3.39-5.67a24.68,24.68,0,0,1,10.06-10.47A30.07,30.07,0,0,1,1223.83,1249.88Z"/><path class="cls-4" d="M651.5,1432.16a37.46,37.46,0,0,1-13.5-2.35,31.75,31.75,0,0,1-10.71-6.68A30.86,30.86,0,0,1,620.2,1413a34,34,0,0,1,0-25.68,30.54,30.54,0,0,1,7.13-10.18,32.14,32.14,0,0,1,10.8-6.68,41.14,41.14,0,0,1,28.47.39,29.45,29.45,0,0,1,11.11,8l-9.21,8.5a22.41,22.41,0,0,0-7.35-5.27,21.58,21.58,0,0,0-8.67-1.72,23.1,23.1,0,0,0-8.24,1.41,18.45,18.45,0,0,0-6.42,4.08,18.19,18.19,0,0,0-4.16,6.28,21.5,21.5,0,0,0-1.46,8.06,21.25,21.25,0,0,0,1.46,8,18.69,18.69,0,0,0,4.16,6.33,18.22,18.22,0,0,0,6.38,4.12,22.44,22.44,0,0,0,8.1,1.41,25.41,25.41,0,0,0,8.28-1.37,23.76,23.76,0,0,0,7.83-4.65l8.15,10.36a37.27,37.27,0,0,1-11.73,5.84A45.49,45.49,0,0,1,651.5,1432.16Zm12-9.74v-23.28h13.11v25.14Z"/><path class="cls-4" d="M717.82,1431.81a23.45,23.45,0,0,1-10.58-2.31,16.29,16.29,0,0,1-7.22-7q-2.57-4.74-2.57-12.09v-26.92h13.82v24.88q0,5.94,2.52,8.73a9.15,9.15,0,0,0,7.13,2.78,11.43,11.43,0,0,0,5.66-1.37,9.47,9.47,0,0,0,3.9-4.25,16.34,16.34,0,0,0,1.41-7.21v-23.56h13.82v47.64H732.6V1418l2.39,3.8a16.28,16.28,0,0,1-7,7.48A20.77,20.77,0,0,1,717.82,1431.81Z"/><path class="cls-4" d="M782.1,1431.81a22,22,0,0,1-9.57-1.91,14.55,14.55,0,0,1-6.11-5.18,14.05,14.05,0,0,1,0-14.78,13.62,13.62,0,0,1,6.6-5,32,32,0,0,1,11.77-1.82h12.66v8.06H786.26q-4.87,0-6.69,1.59a5.07,5.07,0,0,0-1.81,4,5,5,0,0,0,2.08,4.21,9.38,9.38,0,0,0,5.71,1.55,11.89,11.89,0,0,0,6.2-1.64,9.39,9.39,0,0,0,4-4.82l2.13,6.37a12.41,12.41,0,0,1-5.49,7A19.79,19.79,0,0,1,782.1,1431.81Zm14.52-.71v-9.3l-.89-2v-16.65a8.93,8.93,0,0,0-2.7-6.91q-2.7-2.48-8.28-2.47a23.93,23.93,0,0,0-7.48,1.19,19.77,19.77,0,0,0-6.24,3.23l-5-9.65a30.07,30.07,0,0,1,9.39-4.25,42,42,0,0,1,11.15-1.5q10.89,0,16.91,5.13t6,16v27.18Z"/><path class="cls-4" d="M830.88,1431.1v-47.64h13.19v13.46l-1.86-3.89a15.29,15.29,0,0,1,6.82-7.66,23.2,23.2,0,0,1,11.42-2.61v12.75c-.59-.06-1.12-.11-1.59-.14s-1,0-1.51,0a13,13,0,0,0-9.16,3.23q-3.5,3.24-3.5,10v22.49Z"/><path class="cls-4" d="M897.55,1431.81a24.19,24.19,0,0,1-12.13-3.06,22.31,22.31,0,0,1-8.54-8.54,28.36,28.36,0,0,1,0-25.94,22,22,0,0,1,8.54-8.5,24.47,24.47,0,0,1,12.13-3,20.4,20.4,0,0,1,10.54,2.65,17.44,17.44,0,0,1,7,8.06q2.48,5.4,2.48,13.81a34.46,34.46,0,0,1-2.39,13.77,17,17,0,0,1-6.86,8.1A20.71,20.71,0,0,1,897.55,1431.81Zm2.39-11.34a12,12,0,0,0,6.11-1.59,11.6,11.6,0,0,0,4.38-4.56,16,16,0,0,0,0-14.12,11.76,11.76,0,0,0-4.38-4.52,12,12,0,0,0-6.11-1.59,12.15,12.15,0,0,0-6.2,1.59,11.76,11.76,0,0,0-4.38,4.52,16,16,0,0,0,0,14.12,11.6,11.6,0,0,0,4.38,4.56A12.15,12.15,0,0,0,899.94,1420.47Zm12.49,10.63v-9.74l.26-14.17-.88-14.07V1365.4h13.81v65.7Z"/><path class="cls-4" d="M946.07,1377.36,958,1364.61H972.9l-16,12.75Zm1.15,53.74v-47.64H961v47.64Z"/><path class="cls-4" d="M997.42,1431.81a22,22,0,0,1-9.56-1.91,14.49,14.49,0,0,1-6.11-5.18,14.05,14.05,0,0,1,0-14.78,13.54,13.54,0,0,1,6.59-5,32.05,32.05,0,0,1,11.78-1.82h12.66v8.06h-11.16q-4.86,0-6.68,1.59a5.08,5.08,0,0,0-1.82,4,5,5,0,0,0,2.08,4.21,9.4,9.4,0,0,0,5.71,1.55,11.87,11.87,0,0,0,6.2-1.64,9.41,9.41,0,0,0,4-4.82l2.12,6.37a12.33,12.33,0,0,1-5.49,7A19.76,19.76,0,0,1,997.42,1431.81Zm14.52-.71v-9.3l-.88-2v-16.65a8.93,8.93,0,0,0-2.7-6.91q-2.7-2.48-8.28-2.47a23.88,23.88,0,0,0-7.48,1.19,19.94,19.94,0,0,0-6.25,3.23l-5-9.65a29.9,29.9,0,0,1,9.38-4.25,42.16,42.16,0,0,1,11.16-1.5q10.89,0,16.91,5.13t6,16v27.18Z"/><path class="cls-5" d="M1114.1,654.68c-.21,4.7-.54,9.32-.89,14-6.08,101.35-78,133.76-132.1,197.39-16.72,19.69-7.81,97.69-4.22,120.55,11.75,75.17,54.73,157.11,54.73,157.11-70.8,41.76-287.9,58.39-330.1,0,0,0,9.87-109.71-9.89-140.32s-68.19-8.91-123.52-5.94S509.25,967.71,511.8,949c2.21-16.65,12.29-31.09,10.85-38.07s-18.79-12.78-22.73-18.72,15.82-23.77,15.82-23.77S500.88,864,499,851.16s16.79-35.58,12.85-40.48-58.86-33.65-57.9-46.5,65.6-68.91,72.41-108.95c.84-5,1.17-12.44,1-22.66a216.21,216.21,0,0,1-2.7-34.34A222.49,222.49,0,0,1,529.21,553C547.73,437.74,658,374.46,707.53,362.57a331.42,331.42,0,0,1,165-13.26C744.21,355.39,642.1,456,642.1,579.3c0,127.19,108.68,230.27,242.63,230.27C990.92,809.57,1081.15,744.84,1114.1,654.68Z"/><path class="cls-6" d="M741.67,721.58s-18.12,1.09-44.71-48.89c-23.91-44.94-35.62-70.24-43.72-70.14s-17,14.58-13.48,28.11,22,89.63,62.84,129S825.71,803.2,825.71,803.2l-.7-36.54Z"/><path class="cls-7" d="M794.92,692.09c-2.08-4.84-3.38-18.26.65-21.65s10.29-.81,14.71,2.18c41.52,28.06,46.19,72.63,102.64,109-4.72,3.23-11.07,2.08-16.63.73-13.5-3.28-26.84-7-40.17-10.92-12.43-3.62-15.16,1.72-22.48-9.35C820.77,742.62,805.41,716.53,794.92,692.09Z"/><path class="cls-8" d="M1015.14,865.2c-6.56-28.66-19.2-57-39.92-77.87-42-42.25-102.64-47.12-121.87-51.33-35.28-7.72-73.88-39.34-102.71-61.12-8.62-6.52-21-18.09-30.67-10.09-5.88,15.79,12.9,51.08,30.89,69.81,25.44,26.5,52.28,33.61,66.81,67.33-56.78,2.78-101.6-20.34-117.33-32.74-26.2-20.66-46.61-54-65.52-81.46-7.21-10.49-15.89-20.59-27.53-25.77s-26-7-34.55,2.42c21.2,88.7,79,158.19,160.83,194.88,28.82,12.92,73.23,19,102.64,30.52C978.72,945.59,996,1062,996,1062S1038.86,968.74,1015.14,865.2Z"/><path class="cls-9" d="M1076.45,540.87c-30.1,102-151,128-151,128v0s-120.88-25.93-151-128c-18.28-62,4-129.37,64.64-138.64,54.7-8.38,80.84,43.58,86.34,56.26,5.51-12.68,31.64-64.64,86.35-56.26C1072.46,411.5,1094.75,478.85,1076.45,540.87Z"/><path class="cls-10" d="M925.31,458.13c-2.65,9.89-26.68,75.33-93.29,82.14-52.34,5.35-62.37-26.75-63.15-28.77-4.74-52.35,19.14-101.44,70.24-109.3C893.25,394,919.39,444.83,925.31,458.13Z"/><g class="cls-11"><rect class="cls-3" x="911.24" y="518.3" width="32.8" height="103.07"/><rect class="cls-3" x="911.24" y="518.3" width="32.79" height="103.07" transform="translate(357.81 1497.47) rotate(-90)"/></g><polygon class="cls-4" points="853.37 1550.17 851.85 1549.48 849.92 1551.96 851.15 1551.96 853.37 1550.17"/><path class="cls-4" d="M696.23,1493.5c-14.43,0-31.69,7.17-41.1,26.43-9.42-19.26-26.68-26.43-41.1-26.43-.89,0-1.52,0-1.85,0H582.5v89.19h32.55s.48,0,1.25,0c12.59,0,29.07,3,34.65,11.34h8.35c5.58-8.36,22.06-11.34,34.65-11.34h33.8v-89.19H698.07C697.74,1493.53,697.11,1493.5,696.23,1493.5Zm-68.42,74.67c1.81-.36,4.29-.05,6.36-.15a35.45,35.45,0,0,0,6.62,9.49c-1.69-.54-3.39-1-5.08-1.39A32.25,32.25,0,0,1,627.81,1568.17Zm5.27-15H641a114.29,114.29,0,0,0,1.55,12.86h-7C634.15,1562.51,632.51,1557.6,633.08,1553.15Zm-.31-2c.31-4.91,1.08-9.35,3-12.7h6.81a113.73,113.73,0,0,0-1.55,12.86C638.29,1551.19,635.21,1551.49,632.77,1551.13ZM643.15,1568a46.58,46.58,0,0,0,5.12,12.55c-5.08-2.36-8.93-7.29-11.78-12.4C638.4,1567.81,641,1568.12,643.15,1568Zm2.17,0h5.26v12.36A43.35,43.35,0,0,1,645.32,1568Zm-.62-2a68.63,68.63,0,0,1-1.55-12.4.43.43,0,0,1,.32-.46h7.11V1566Zm-1.55-14.88c.22-4.58.53-9.07,1.71-12.7h5.72v12.85A62.33,62.33,0,0,1,643.15,1551.13Zm7.43-18.75v4h-5.26a44.38,44.38,0,0,1,3.49-9.24A54.74,54.74,0,0,1,650.58,1532.38Zm-2.85-7.74a53.49,53.49,0,0,0-4.58,11.77h-6.66a31.5,31.5,0,0,1,11-12.35C647.55,1524.25,647.64,1524.44,647.73,1524.64Zm-13.56,11.77h-6.36A29.56,29.56,0,0,1,643,1524.64C639.85,1527.74,636.25,1531.73,634.17,1536.41Zm-.93,2a47.38,47.38,0,0,0-2.63,12.86h-7.45a26,26,0,0,1,3.42-12.86Zm-2.63,14.72a47.46,47.46,0,0,0,2.63,12.86h-6.66a26.08,26.08,0,0,1-3.42-12.86ZM614.83,1574H591.22v-71.73h21.13l.37,0c.08,0,.55,0,1.31,0a36.44,36.44,0,0,1,32.31,19.65,31.87,31.87,0,0,0-17.44,9.59,31.18,31.18,0,0,0,2.32,43.69l.11.09a93.91,93.91,0,0,0-15-1.25C615.53,1574,615,1574,614.83,1574Zm84.61-13.52c-.76,1,.15,4.16-1.5,4-1.34-.12-.7-2.9-.31-4a5.47,5.47,0,0,1,3.85-3.78c.31.12.37.48.71.55.27-.14.27-.57.71-.55,1.87.43,3.33,2.3,3.86,4.33.23.91.62,2.21.31,2.92a1,1,0,0,1-1.65.16c-.29-1.13-.09-2.75-.71-3.55-.1,4.43-.21,8.87-.16,13.44h-2v-6.67c0-.71.19-1.58-.23-2.12-1-.37-.71,1.29-.71,2.12V1574h-2C699.69,1569.41,699.7,1564.81,699.44,1560.49Zm.15-6.53a2.34,2.34,0,0,1,2.37-2.44,2.75,2.75,0,0,1,2.52,1.42C706,1556.7,699.52,1558.1,699.59,1554ZM719,1574H708.61c.75-.93.66-2.76.9-4.46.21-1.42.44-2.81.63-3.94H712c-.45-4.17-1.46-7.79-1.5-12.36,1.22,1.14.2,6,2.59,6,2.12,0,1.24-2.92.79-4.72a12.46,12.46,0,0,0-2.59-5.51c-.81-.85-2.54-2.15-3.39-2.21-.5,0-.7.42-1.1.79-.48-.15-.56-.7-1-.86a18.55,18.55,0,0,0-3.15,2c-.85-.76-2.45-2.58-3.77-2.67-.59,0-.71.47-1.18.78-.48-.16-.52-.74-1-.86-3.55,1.4-5.36,4.36-6.3,8.74-.35,1.66-1.14,4.74,1.42,4,1.71-.48,1-4.2,2-5.59,0,5.8.82,10.77,1.34,16.46.16,1.74,0,3.51.8,4.46h-.41c-.19,0-.7,0-1.47,0-6,0-22.84.7-34.28,8v-49.59c8-28,30-30.16,36.56-30.16.76,0,1.22,0,1.28,0l21.51,0Z"/><polygon class="cls-4" points="740.35 1560.17 747.78 1560.17 747.78 1558.77 740.35 1558.77 740.35 1554.12 748.66 1554.12 748.66 1552.72 738.81 1552.72 738.81 1566.34 748.75 1566.34 748.75 1564.94 740.35 1564.94 740.35 1560.17"/><path class="cls-4" d="M758.52,1552.72H753.8v13.62h4.72c4.29,0,7.25-3,7.25-6.81v0C765.77,1555.66,762.81,1552.72,758.52,1552.72Zm5.65,6.85a5.28,5.28,0,0,1-5.65,5.35h-3.19v-10.78h3.19a5.3,5.3,0,0,1,5.65,5.39Z"/><path class="cls-4" d="M780.56,1560.64c0,3-1.6,4.49-4.11,4.49s-4.16-1.65-4.16-4.59v-7.82h-1.54v7.92c0,3.85,2.3,5.91,5.66,5.91s5.68-2.06,5.68-6v-7.8h-1.53Z"/><path class="cls-4" d="M794,1565.15a5.37,5.37,0,0,1-5.27-5.62v0a5.34,5.34,0,0,1,5.27-5.59,5.92,5.92,0,0,1,4.28,1.87l1-1.12a7.07,7.07,0,0,0-5.31-2.17,6.87,6.87,0,0,0-6.89,7v0a6.79,6.79,0,0,0,6.83,7,7.09,7.09,0,0,0,5.45-2.39l-1-1A5.94,5.94,0,0,1,794,1565.15Z"/><path class="cls-4" d="M809,1552.62l-6.2,13.72h1.57l1.62-3.6h7.41l1.6,3.6h1.65l-6.21-13.72Zm-2.41,8.74,3.11-6.95,3.1,6.95Z"/><path class="cls-4" d="M826.78,1565.15a5.37,5.37,0,0,1-5.27-5.62v0a5.35,5.35,0,0,1,5.27-5.59,5.94,5.94,0,0,1,4.29,1.87l1-1.12a7.11,7.11,0,0,0-5.32-2.17,6.87,6.87,0,0,0-6.88,7v0a6.79,6.79,0,0,0,6.83,7,7.07,7.07,0,0,0,5.44-2.39l-1-1A5.92,5.92,0,0,1,826.78,1565.15Z"/><rect class="cls-4" x="836.97" y="1552.72" width="1.54" height="13.62"/><path class="cls-4" d="M850.8,1552.48a6.91,6.91,0,0,0-7,7v0a7,7,0,1,0,13.9,0v0A6.84,6.84,0,0,0,850.8,1552.48Zm5.33,7.09a5.34,5.34,0,0,1-5.33,5.58,5.42,5.42,0,0,1-5.37-5.62v0a5.36,5.36,0,0,1,5.33-5.59,5.42,5.42,0,0,1,5.37,5.63Z"/><polygon class="cls-4" points="872.95 1563.63 864.37 1552.72 862.93 1552.72 862.93 1566.34 864.43 1566.34 864.43 1555.17 873.22 1566.34 874.45 1566.34 874.45 1552.72 872.95 1552.72 872.95 1563.63"/><rect class="cls-4" x="888.17" y="1552.72" width="1.54" height="13.62"/><polygon class="cls-4" points="905.67 1563.63 897.09 1552.72 895.65 1552.72 895.65 1566.34 897.14 1566.34 897.14 1555.17 905.94 1566.34 907.17 1566.34 907.17 1552.72 905.67 1552.72 905.67 1563.63"/><polygon class="cls-4" points="912 1554.14 916.57 1554.14 916.57 1566.34 918.13 1566.34 918.13 1554.14 922.7 1554.14 922.7 1552.72 912 1552.72 912 1554.14"/><polygon class="cls-4" points="929.07 1560.17 936.5 1560.17 936.5 1558.77 929.07 1558.77 929.07 1554.12 937.38 1554.12 937.38 1552.72 927.53 1552.72 927.53 1566.34 937.47 1566.34 937.47 1564.94 929.07 1564.94 929.07 1560.17"/><polygon class="cls-4" points="944.05 1552.72 942.52 1552.72 942.52 1566.34 951.72 1566.34 951.72 1564.92 944.05 1564.92 944.05 1552.72"/><rect class="cls-4" x="956.65" y="1552.72" width="1.54" height="13.62"/><path class="cls-4" d="M970.29,1560.44h4.14v3.39a6.39,6.39,0,0,1-3.93,1.36c-3.31,0-5.39-2.41-5.39-5.66v0a5.32,5.32,0,0,1,5.18-5.59,5.8,5.8,0,0,1,4.14,1.56l1-1.17a7.24,7.24,0,0,0-5.08-1.81,6.84,6.84,0,0,0-6.83,7v0a6.67,6.67,0,0,0,6.92,7,8.23,8.23,0,0,0,5.47-2.08v-5.43h-5.62Z"/><polygon class="cls-4" points="982.86 1560.17 990.3 1560.17 990.3 1558.77 982.86 1558.77 982.86 1554.12 991.17 1554.12 991.17 1552.72 981.33 1552.72 981.33 1566.34 991.27 1566.34 991.27 1564.94 982.86 1564.94 982.86 1560.17"/><polygon class="cls-4" points="1006.34 1563.63 997.75 1552.72 996.32 1552.72 996.32 1566.34 997.81 1566.34 997.81 1555.17 1006.61 1566.34 1007.83 1566.34 1007.83 1552.72 1006.34 1552.72 1006.34 1563.63"/><polygon class="cls-4" points="1012.66 1554.14 1017.24 1554.14 1017.24 1566.34 1018.79 1566.34 1018.79 1554.14 1023.37 1554.14 1023.37 1552.72 1012.66 1552.72 1012.66 1554.14"/><polygon class="cls-4" points="1029.73 1560.17 1037.17 1560.17 1037.17 1558.77 1029.73 1558.77 1029.73 1554.12 1038.04 1554.12 1038.04 1552.72 1028.19 1552.72 1028.19 1566.34 1038.14 1566.34 1038.14 1564.94 1029.73 1564.94 1029.73 1560.17"/><rect class="cls-4" x="738.86" y="1507.86" width="9.63" height="36.16"/><path class="cls-4" d="M772.06,1544h9.33v-16.83c0-5.59-3-10.78-10.31-10.78-4.25,0-8,1.71-9.85,5.6h-.1v-5h-8.49v27H762v-11.39c0-5.8,2-8.45,5.8-8.45,2.54,0,4.3,1.71,4.3,6.79Z"/><path class="cls-4" d="M787.55,1534.53c0,6.43,2,10.11,10.36,10.11a44.11,44.11,0,0,0,5.85-.52l-.31-6.06a18.51,18.51,0,0,1-2.85.36c-3,0-3.73-1.66-3.73-4.92v-10h6.53V1517h-6.53v-8.91L787.7,1511V1517h-5.49v6.52h5.34Z"/><path class="cls-4" d="M829.29,1536.35a17.44,17.44,0,0,1-8.23,2.07c-4.56,0-7.41-1.45-7.93-5.18h18.65v-1.71c0-8-3.63-15.13-13.62-15.13-8.39,0-14.45,5.19-14.45,14.09s6.78,14.15,15.69,14.15a27,27,0,0,0,9.89-1.71Zm-11.08-14c3.73,0,5.18,2.54,5.18,5.65H813C813.24,1524.85,814.84,1522.31,818.21,1522.31Z"/><rect class="cls-4" x="835.15" y="1505.16" width="9.32" height="38.85"/><rect class="cls-4" x="849.86" y="1517.03" width="9.32" height="26.99"/><path class="cls-4" d="M900,1516.4a10.7,10.7,0,0,0-9.59,5.19c-1.45-3.53-4.61-5.19-8.44-5.19-4.25,0-8,1.71-9.84,5.6H872v-5h-8.5v27h9.32v-11.39c0-5.8,2-8.45,5.29-8.45,2.64,0,3.73,2.28,3.73,5.34V1544h9.32v-11.39c0-5.8,2-8.45,5.28-8.45,2.64,0,3.73,2.28,3.73,5.34V1544h9.33v-15.9C909.48,1520.81,907.72,1516.4,900,1516.4Z"/><path class="cls-4" d="M932.83,1539h.11v5h8.49v-27h-9.32v11.39c0,5.8-2,8.44-5.8,8.44-2.54,0-4.3-1.7-4.3-6.78v-13h-9.33v16.83c0,5.6,3,10.78,10.31,10.78C927.24,1544.64,931,1542.93,932.83,1539Z"/><path class="cls-4" d="M964.07,1531v13h9.32v-16.83c0-5.59-2.95-10.78-10.3-10.78-4.25,0-8,1.71-9.85,5.6h-.1v-5h-8.5v27H954v-11.39c0-5.8,2-8.45,5.8-8.45C962.31,1524.17,964.07,1525.88,964.07,1531Z"/><path class="cls-4" d="M996.9,1539.2H997V1544h8.6v-38.85h-9.38v15.34h-.1c-2.38-3.11-5.54-4.1-9.27-4.1-7.46,0-11.55,7-11.55,13.63,0,8,4.29,14.61,12.32,14.61C991.93,1544.64,995.71,1542.2,996.9,1539.2Zm-12-9c0-3.58,2-6.69,5.65-6.69,3.41,0,5.7,3,5.7,7,0,3.93-2.6,6.89-5.7,6.89C987.06,1537.49,984.94,1534.53,984.94,1530.24Z"/><path class="cls-4" d="M1038.71,1530.55c0-9-6.79-14.15-15.7-14.15s-15.7,5.19-15.7,14.15,6.79,14.09,15.7,14.09S1038.71,1539.46,1038.71,1530.55Zm-15.7,7.56c-4.3,0-6.06-3.58-6.06-7.56s1.76-7.62,6.06-7.62,6.06,3.57,6.06,7.62S1027.31,1538.11,1023,1538.11Z"/><path class="cls-4" d="M1045.64,1562.67a4.4,4.4,0,1,0,4.39,4.39A4.4,4.4,0,0,0,1045.64,1562.67Zm0,8.12a3.73,3.73,0,1,1,3.73-3.73A3.73,3.73,0,0,1,1045.64,1570.79Z"/><path class="cls-4" d="M1046.34,1567.44a1.48,1.48,0,0,0,1.36-1.47,1.34,1.34,0,0,0-.4-1,2,2,0,0,0-1.43-.51h-2.15v5.07h.54v-2h1.47l1.53,2,0,0h.68Zm-2.08-2.44h1.58c.83,0,1.32.37,1.32,1s-.52,1-1.34,1h-1.56Z"/><path class="cls-4" d="M694.4,1539.87a2.86,2.86,0,0,0-.55,1.57,3.61,3.61,0,0,0,3.7,4.25,3.84,3.84,0,0,0,3.54-5.27,3.77,3.77,0,0,0-4.25-2.13A3.7,3.7,0,0,0,694.4,1539.87Z"/><path class="cls-4" d="M707.31,1546.48a3.78,3.78,0,0,0,2.83-5,3.67,3.67,0,0,0-3.7-2.28,3.6,3.6,0,0,0-3.38,4.25A3.71,3.71,0,0,0,707.31,1546.48Z"/><rect class="cls-4" x="849.86" y="1505.78" width="9.32" height="6.84"/><path class="cls-4" d="M704.87,1530.73H680.73a.86.86,0,0,1,0-1.71h24.14a.86.86,0,1,1,0,1.71Z"/><path class="cls-4" d="M704.87,1526H680.73a.86.86,0,0,1,0-1.72h24.14a.86.86,0,0,1,0,1.72Z"/><path class="cls-4" d="M704.87,1521.24H680.73a.86.86,0,0,1,0-1.71h24.14a.86.86,0,1,1,0,1.71Z"/><path class="cls-4" d="M704.87,1516.5H680.73a.86.86,0,0,1,0-1.71h24.14a.86.86,0,1,1,0,1.71Z"/></g></g></svg>