<?xml version="1.0" encoding="utf-8"?>
<!-- Generator: Adobe Illustrator 24.0.2, SVG Export Plug-In . SVG Version: 6.00 Build 0)  -->
<svg version="1.1" id="Capa_1" xmlns="http://www.w3.org/2000/svg" xmlns:xlink="http://www.w3.org/1999/xlink" x="0px" y="0px"
	 viewBox="0 0 1224 792" style="enable-background:new 0 0 1224 792;" xml:space="preserve">
<style type="text/css">
	.st0{fill:#F5F5F5;}
	.st1{fill:#E1E1E1;}
	.st2{fill:none;stroke:#FFFFFF;stroke-miterlimit:10;}
	.st3{opacity:0.2;}
	.st4{fill:#FF4F5B;}
	.st5{fill:#1A2E35;}
	.st6{fill:#375A64;}
	.st7{fill:#C78976;}
	.st8{fill:#B66955;}
	.st9{opacity:0.3;}
	.st10{fill:#FAFAFA;}
	.st11{opacity:0.5;}
	.st12{fill:#FFFFFF;}
</style>
<g>
	<g>
		
			<rect x="187.77" y="255.67" transform="matrix(0.8312 -0.556 0.556 0.8312 -188.851 244.612)" class="st0" width="241.3" height="355.31"/>
	</g>
	<g>
		<g>
			<polygon class="st1" points="403.86,499.91 401.58,514 301.88,499.63 304.15,485.54 			"/>
		</g>
		<g>
			<polygon class="st1" points="353.64,449.66 367.95,451.72 352.09,549.89 337.78,547.82 			"/>
		</g>
	</g>
	<g>
		<g>
			<path class="st2" d="M325.29,330.69"/>
		</g>
	</g>
	<g>
		<g>
			<path class="st1" d="M261.81,324.88c0.14,0.21-19.96,13.91-44.89,30.58c-24.94,16.68-45.27,30.03-45.41,29.81
				c-0.14-0.21,19.95-13.91,44.89-30.59C241.33,338.02,261.66,324.67,261.81,324.88z"/>
		</g>
	</g>
	<g>
		<g>
			<path class="st1" d="M335.57,306.36c0.14,0.21-33.28,22.82-74.65,50.49c-41.38,27.68-75.03,49.93-75.17,49.72
				c-0.14-0.21,33.27-22.82,74.65-50.49C301.77,328.41,335.42,306.15,335.57,306.36z"/>
		</g>
	</g>
	<g>
		<g>
			<path class="st1" d="M350.35,328.47c0.14,0.21-33.28,22.82-74.65,50.49c-41.38,27.68-75.03,49.93-75.17,49.72
				c-0.14-0.21,33.27-22.82,74.65-50.49C316.55,350.52,350.21,328.26,350.35,328.47z"/>
		</g>
	</g>
	<g>
		<g>
			<path class="st1" d="M365.14,350.58c0.14,0.21-33.28,22.82-74.65,50.49c-41.38,27.68-75.03,49.93-75.17,49.72
				c-0.14-0.21,33.27-22.82,74.65-50.49C331.34,372.62,364.99,350.36,365.14,350.58z"/>
		</g>
	</g>
	<g>
		<g>
			<path class="st1" d="M379.92,372.68c0.14,0.21-33.28,22.82-74.65,50.49c-41.38,27.68-75.03,49.93-75.17,49.72
				c-0.14-0.21,33.27-22.82,74.65-50.49C346.12,394.73,379.78,372.47,379.92,372.68z"/>
		</g>
	</g>
</g>
<g>
	<g>
		
			<rect x="878.02" y="447.66" transform="matrix(0.8312 -0.556 0.556 0.8312 -166.5247 645.2242)" class="st0" width="202.65" height="298.4"/>
	</g>
	<g>
		<g>
			<polygon class="st1" points="1059.5,652.78 1057.59,664.61 973.85,652.55 975.76,640.72 			"/>
		</g>
		<g>
			<polygon class="st1" points="1017.33,610.58 1029.34,612.31 1016.02,694.75 1004.01,693.02 			"/>
		</g>
	</g>
	<g>
		<g>
			<path class="st2" d="M993.51,510.67"/>
		</g>
	</g>
	<g>
		<g>
			<path class="st1" d="M940.2,505.79c0.14,0.21-16.72,11.74-37.66,25.75c-20.95,14.01-38.04,25.19-38.18,24.98
				c-0.14-0.21,16.72-11.74,37.66-25.75C922.96,516.76,940.06,505.57,940.2,505.79z"/>
		</g>
	</g>
	<g>
		<g>
			<path class="st1" d="M1002.15,490.24c0.14,0.21-27.91,19.23-62.65,42.46c-34.75,23.24-63.03,41.91-63.17,41.69
				c-0.14-0.21,27.9-19.22,62.66-42.47C973.72,508.69,1002,490.02,1002.15,490.24z"/>
		</g>
	</g>
	<g>
		<g>
			<path class="st1" d="M1014.56,508.8c0.14,0.21-27.91,19.23-62.65,42.46c-34.75,23.24-63.03,41.91-63.17,41.69
				c-0.14-0.21,27.9-19.22,62.66-42.47C986.14,527.26,1014.42,508.59,1014.56,508.8z"/>
		</g>
	</g>
	<g>
		<g>
			<path class="st1" d="M1026.98,527.37c0.14,0.21-27.91,19.23-62.65,42.46c-34.75,23.24-63.03,41.91-63.17,41.69
				c-0.14-0.21,27.9-19.22,62.66-42.47C998.55,545.82,1026.84,527.15,1026.98,527.37z"/>
		</g>
	</g>
	<g>
		<g>
			<path class="st1" d="M1039.4,545.93c0.14,0.21-27.91,19.23-62.65,42.46c-34.75,23.24-63.03,41.91-63.17,41.69
				c-0.14-0.21,27.9-19.22,62.66-42.47C1010.97,564.39,1039.26,545.72,1039.4,545.93z"/>
		</g>
	</g>
</g>
<g>
	<g>
		
			<rect x="445.65" y="162.12" transform="matrix(0.8818 0.4716 -0.4716 0.8818 213.8126 -222.0231)" class="st0" width="208.43" height="306.9"/>
	</g>
	<g>
		<g>
			<polygon class="st1" points="537.93,415.37 526.27,419.37 496.67,337.54 508.33,333.55 			"/>
		</g>
		<g>
			<polygon class="st1" points="555.81,356.67 560.06,368.41 478.79,396.24 474.55,384.5 			"/>
		</g>
	</g>
	<g>
		<g>
			<path class="st2" d="M634.94,286.69"/>
		</g>
	</g>
	<g>
		<g>
			<path class="st1" d="M613.55,235.95c-0.14,0.27-18.79-9.42-41.63-21.64c-22.85-12.22-41.26-22.35-41.11-22.62
				c0.14-0.27,18.78,9.42,41.64,21.64C595.28,225.55,613.69,235.68,613.55,235.95z"/>
		</g>
	</g>
	<g>
		<g>
			<path class="st1" d="M657.65,284.63c-0.14,0.27-31-15.95-68.9-36.22c-37.92-20.28-68.53-36.93-68.39-37.2
				c0.14-0.27,30.99,15.95,68.91,36.23C627.18,267.7,657.8,284.36,657.65,284.63z"/>
		</g>
	</g>
	<g>
		<g>
			<path class="st1" d="M646.82,304.88c-0.14,0.27-31-15.95-68.9-36.22c-37.92-20.28-68.53-36.93-68.39-37.2
				c0.14-0.27,30.99,15.95,68.91,36.23C616.34,287.96,646.96,304.62,646.82,304.88z"/>
		</g>
	</g>
	<g>
		<g>
			<path class="st1" d="M635.99,325.14c-0.14,0.27-31-15.95-68.9-36.22c-37.92-20.28-68.53-36.93-68.39-37.2
				c0.14-0.27,30.99,15.95,68.91,36.23C605.51,308.22,636.13,324.87,635.99,325.14z"/>
		</g>
	</g>
	<g>
		<g>
			<path class="st1" d="M625.15,345.4c-0.14,0.27-31-15.95-68.9-36.22c-37.92-20.28-68.53-36.93-68.39-37.2
				c0.14-0.27,30.99,15.95,68.91,36.23C594.68,328.47,625.3,345.13,625.15,345.4z"/>
		</g>
	</g>
</g>
<rect x="621.5" class="st3" width="4.62" height="78.62"/>
<g>
	<g>
		<g>
			<path class="st4" d="M516.14,173.73h215.33c0,0-19.88-95.16-109.3-95.16C542.64,78.57,516.14,173.73,516.14,173.73z"/>
		</g>
	</g>
	<rect x="621.5" class="st4" width="4.62" height="78.62"/>
</g>
<g>
	<g>
		<path class="st5" d="M1103.24,786.22c0,0.26-231.04,0.47-515.98,0.47c-285.04,0-516.03-0.21-516.03-0.47
			c0-0.26,230.99-0.47,516.03-0.47C872.19,785.76,1103.24,785.96,1103.24,786.22z"/>
	</g>
</g>
<g>
	<g>
		<path class="st4" d="M128.34,674.27c6.04,0.21,11.72,3.49,15.7,8.04c3.99,4.55,6.43,10.27,7.99,16.11
			c3.02,11.3,1.17,24.64-2.06,35.89c-12.24-4.37-19.78-17.42-23.2-24.28C121.39,699.18,118.22,676.31,128.34,674.27"/>
	</g>
	<g>
		<path class="st4" d="M167.58,748.01c-3.86-5.54-3.95-13.25-0.9-19.28c3.05-6.03,8.92-10.37,15.37-12.36
			c2.99-0.92,6.45-1.3,9.05,0.43c2.43,1.62,3.48,4.8,3.16,7.71c-0.31,2.9-1.78,5.56-3.52,7.91
			C184.8,740.48,177.56,747.19,167.58,748.01"/>
	</g>
	<g>
		<g>
			<path class="st5" d="M168.93,785.78c-0.06,0.01-0.24-0.83-0.55-2.35c-0.33-1.68-0.75-3.84-1.26-6.44
				c-0.97-5.42-2.5-13.12-1.34-21.64c1.11-8.48,4.49-15.73,8.03-20.05c1.74-2.19,3.41-3.74,4.64-4.69c0.6-0.5,1.12-0.81,1.46-1.05
				c0.34-0.23,0.53-0.33,0.55-0.31c0.13,0.15-2.86,2-6.17,6.41c-3.35,4.34-6.56,11.47-7.66,19.8c-1.14,8.34,0.27,15.97,1.09,21.42
				c0.44,2.73,0.79,4.95,0.99,6.49C168.91,784.92,168.99,785.78,168.93,785.78z"/>
		</g>
	</g>
	<g>
		<g>
			<path class="st5" d="M132.28,691.48c0.03-0.01,0.2,0.31,0.49,0.93c0.33,0.7,0.74,1.61,1.26,2.72c1.08,2.37,2.6,5.82,4.44,10.1
				c3.69,8.56,8.61,20.46,13.76,33.72c5.14,13.27,9.53,25.38,12.57,34.19c1.53,4.4,2.73,7.98,3.53,10.46
				c0.37,1.17,0.67,2.12,0.91,2.86c0.2,0.66,0.29,1.01,0.26,1.02c-0.03,0.01-0.17-0.32-0.42-0.96c-0.27-0.73-0.62-1.66-1.06-2.81
				c-0.93-2.55-2.21-6.06-3.78-10.37c-3.19-8.75-7.66-20.82-12.8-34.08c-5.14-13.25-9.98-25.18-13.52-33.79
				c-1.74-4.24-3.16-7.7-4.19-10.21c-0.46-1.14-0.83-2.07-1.11-2.79C132.37,691.83,132.26,691.49,132.28,691.48z"/>
		</g>
	</g>
	<g>
		<path class="st4" d="M154.4,760.79c-7.22-12.28-20.69-20.65-34.9-21.68c-3.62-0.26-7.97,0.35-9.58,3.59
			c-1.62,3.25,0.54,7.11,3.01,9.77c10.25,11.11,27.6,14.98,41.6,9.29"/>
	</g>
	<g>
		<g>
			<path class="st5" d="M125.02,748.8c0-0.06,0.81-0.03,2.27,0.08c0.73,0.05,1.62,0.11,2.64,0.31c1.02,0.19,2.2,0.3,3.47,0.65
				c1.27,0.31,2.67,0.62,4.12,1.15c1.48,0.44,3,1.07,4.6,1.75c3.15,1.43,6.5,3.31,9.68,5.74c3.16,2.46,5.83,5.22,8,7.92
				c1.04,1.39,2.04,2.7,2.82,4.03c0.86,1.28,1.5,2.57,2.1,3.73c0.64,1.14,1.02,2.27,1.44,3.22c0.42,0.95,0.69,1.8,0.9,2.5
				c0.43,1.4,0.65,2.17,0.59,2.19c-0.18,0.06-1.05-3.06-3.46-7.64c-0.63-1.13-1.28-2.38-2.16-3.63c-0.79-1.3-1.79-2.57-2.84-3.92
				c-2.17-2.63-4.81-5.32-7.91-7.74c-3.13-2.39-6.4-4.25-9.49-5.7c-1.56-0.68-3.05-1.33-4.5-1.79c-1.42-0.54-2.8-0.88-4.04-1.23
				C128.23,749.15,125,748.98,125.02,748.8z"/>
		</g>
	</g>
</g>
<g>
	<g>
		<g>
			<path class="st5" d="M936.45,188.54c-5.26,1.21-7.82,7.26-8.31,12.63c-0.5,5.37,0.19,11.04-2.07,15.94
				c-2.54,5.52-8.6,9.58-8.8,15.65c-0.12,3.7,2.07,7.18,1.97,10.88c-0.17,6.08-6.37,10.67-6.69,16.74
				c-0.23,4.37,2.68,8.57,1.98,12.89c-0.54,3.36-3.16,6.01-4.27,9.23c-2.21,6.42,2.21,13.49,7.95,17.11
				c6.4,4.03,14.61,5.07,21.81,2.77c7.21-2.3,13.29-7.91,16.17-14.9c3.18-7.72,2.49-16.41,1.79-24.73
				c-2.15-25.93-3.75-51.91-4.8-77.9"/>
		</g>
		<g>
			<g>
				<path class="st6" d="M921.19,280.05c-0.11-0.1,1.44-0.56,2.4-2.86c0.47-1.12,0.71-2.63,0.61-4.36c-0.06-1.75-0.66-3.65-1.3-5.79
					c-0.6-2.12-1.38-4.59-0.93-7.33c0.45-2.78,2.44-5.07,4.26-7.31c0.92-1.14,1.83-2.32,2.41-3.67c0.61-1.33,0.74-2.86,0.28-4.29
					c-0.92-2.92-3.78-5.07-5.1-8.44c-0.65-1.69-0.66-3.54-0.29-5.22c0.35-1.69,1.04-3.22,1.73-4.68c1.4-2.91,2.94-5.58,3.55-8.41
					c1.25-5.67,0.67-11.08,1.52-15.53c0.77-4.45,2.66-7.8,4.52-9.52c0.91-0.89,1.79-1.36,2.36-1.68c0.61-0.26,0.93-0.38,0.95-0.35
					c0.06,0.1-1.33,0.53-3.05,2.29c-1.72,1.74-3.45,5.02-4.13,9.38c-0.36,2.17-0.41,4.61-0.5,7.22c-0.09,2.62-0.17,5.46-0.84,8.39
					c-0.62,2.98-2.2,5.75-3.56,8.61c-1.34,2.81-2.58,6.1-1.39,9.18c1.14,3.04,4.02,5.2,5.1,8.49c0.53,1.64,0.36,3.45-0.33,4.91
					c-0.66,1.49-1.63,2.71-2.56,3.85c-1.87,2.26-3.74,4.41-4.17,6.91c-0.45,2.49,0.24,4.89,0.81,7.01c0.6,2.13,1.18,4.13,1.19,5.95
					c0.05,1.8-0.26,3.37-0.8,4.53c-0.54,1.17-1.28,1.89-1.83,2.26C921.54,279.97,921.19,280.05,921.19,280.05z"/>
			</g>
		</g>
	</g>
	<path class="st7" d="M907.11,322.42l-16.14,46.52l-67.29,3.61l-11.22,24.97l70.25,7.11c14.01,5.79,30.01-1.31,35.13-15.58
		l18.75-52.33L907.11,322.42z"/>
	<g>
		<g>
			<g>
				<path class="st7" d="M1046.3,760.96c0,0-49.31-156.62-50.36-161.71c-0.95-4.6,17.9-117.31,20.27-146.48l-66.63,2.48
					c0,0,0,0.18-0.01,0.49l-28.32,1.57l25.37,320.32h30.66l-3.04-106.27c18.91,50.76,46,102.49,46,102.49L1046.3,760.96z"/>
			</g>
			<g>
				<path class="st8" d="M975.49,709.45c0.03-0.97-0.37-35.61-0.37-35.61c-0.38,2.07-11.76-30.07-11.48-32.03
					C963.78,640.81,975.49,709.45,975.49,709.45z"/>
			</g>
		</g>
		<g>
			<path class="st8" d="M962.34,626.6c-0.07,0-0.14,0.69-0.2,1.94c-0.07,1.25-0.08,3.07,0.04,5.31c0.04,1.12,0.16,2.35,0.31,3.66
				c0.17,1.31,0.35,2.72,0.65,4.17c0.56,2.92,1.41,6.09,2.51,9.33c2.23,6.48,4.68,12.15,6.43,16.26c0.83,1.88,1.54,3.49,2.13,4.84
				c0.52,1.14,0.84,1.75,0.91,1.72c0.07-0.03-0.13-0.69-0.54-1.87c-0.41-1.18-1.04-2.88-1.83-4.96c-1.57-4.18-3.92-9.89-6.13-16.31
				c-1.08-3.21-1.95-6.32-2.55-9.19c-0.32-1.43-0.53-2.81-0.73-4.1c-0.18-1.29-0.34-2.5-0.42-3.61c-0.21-2.21-0.31-4.01-0.36-5.26
				C962.48,627.3,962.41,626.6,962.34,626.6z"/>
		</g>
	</g>
	<g>
		<g>
			<g>
				<g>
					<path class="st6" d="M946.04,779.22l-0.01-2.88l31.41-1.37l0.09,11.88l-1.94,0.13c-8.62,0.5-43.87,1.96-49.64,0.23
						C919.51,785.28,946.04,779.22,946.04,779.22z"/>
				</g>
			</g>
			<g>
				<g>
					<path class="st5" d="M977.96,786.13c0,0.01-0.18,0.03-0.54,0.06c-0.46,0.03-0.97,0.06-1.54,0.1c-1.54,0.07-3.44,0.16-5.68,0.27
						c-4.8,0.19-11.43,0.36-18.75,0.4c-7.33,0.03-13.96-0.09-18.76-0.23c-2.24-0.08-4.14-0.16-5.68-0.22
						c-0.57-0.03-1.08-0.06-1.54-0.09c-0.35-0.02-0.54-0.04-0.54-0.06c0-0.01,0.19-0.02,0.54-0.02c0.46,0,0.97,0.01,1.55,0.01
						c1.54,0.03,3.44,0.06,5.68,0.09c4.8,0.08,11.43,0.15,18.75,0.12c7.32-0.03,13.95-0.16,18.74-0.29
						c2.24-0.06,4.14-0.11,5.68-0.15c0.57-0.01,1.08-0.02,1.55-0.03C977.77,786.11,977.96,786.11,977.96,786.13z"/>
				</g>
			</g>
			<g>
				<g>
					<path class="st5" d="M935.87,787.14c-0.12,0.02-0.21-1.34-1.07-2.71c-0.84-1.38-2.01-2.07-1.94-2.17
						c0.02-0.09,1.36,0.49,2.27,1.97C936.04,785.7,935.96,787.16,935.87,787.14z"/>
				</g>
			</g>
			<g>
				<g>
					<path class="st5" d="M945.07,782.43c-0.09,0.06-0.53-0.48-0.99-1.2c-0.46-0.72-0.76-1.34-0.67-1.4
						c0.09-0.06,0.53,0.48,0.99,1.2C944.86,781.75,945.16,782.37,945.07,782.43z"/>
				</g>
			</g>
			<g>
				<g>
					<path class="st5" d="M947.6,781.08c-0.07,0.08-0.56-0.25-1.1-0.73c-0.54-0.48-0.92-0.94-0.85-1.01
						c0.07-0.08,0.56,0.25,1.1,0.73C947.28,780.55,947.66,781,947.6,781.08z"/>
				</g>
			</g>
			<g>
				<g>
					<path class="st5" d="M949.18,778.13c0,0.1-0.73,0.2-1.63,0.21c-0.9,0.01-1.63-0.06-1.63-0.17c0-0.1,0.73-0.2,1.63-0.21
						C948.45,777.95,949.18,778.02,949.18,778.13z"/>
				</g>
			</g>
			<g>
				<g>
					<path class="st5" d="M949.73,776.04c0.04,0.09-0.76,0.45-1.82,0.54c-1.06,0.09-1.9-0.15-1.88-0.24
						c0.02-0.11,0.84-0.05,1.85-0.13C948.88,776.13,949.69,775.94,949.73,776.04z"/>
				</g>
			</g>
			<g>
				<g>
					<path class="st5" d="M944,779.71c0,0.04-0.77,0.14-2.01-0.01c-0.62-0.07-1.35-0.22-2.14-0.46c-0.39-0.14-0.8-0.24-1.23-0.5
						c-0.2-0.13-0.42-0.32-0.5-0.62c-0.08-0.3,0.08-0.64,0.3-0.8c1.92-1,3.84,0.07,4.56,1.06c0.39,0.5,0.58,1,0.66,1.34
						c0.08,0.34,0.08,0.54,0.05,0.54c-0.07,0.03-0.14-0.79-0.92-1.71c-0.39-0.45-0.97-0.89-1.72-1.11
						c-0.71-0.21-1.72-0.26-2.39,0.17c-0.32,0.24-0.19,0.61,0.16,0.82c0.33,0.21,0.76,0.34,1.13,0.48c0.76,0.26,1.47,0.43,2.07,0.53
						C943.23,779.65,944,779.64,944,779.71z"/>
				</g>
			</g>
			<g>
				<g>
					<path class="st5" d="M943.48,779.81c-0.03,0.02-0.33-0.49-0.24-1.39c0.05-0.44,0.21-0.97,0.54-1.47
						c0.35-0.45,0.81-1.06,1.67-1.03c0.47,0.06,0.7,0.59,0.62,0.93c-0.04,0.35-0.19,0.65-0.34,0.9c-0.3,0.5-0.63,0.91-0.94,1.22
						c-0.63,0.62-1.12,0.85-1.15,0.82c-0.04-0.05,0.4-0.36,0.95-1c0.27-0.32,0.57-0.72,0.84-1.21c0.27-0.43,0.46-1.19-0.04-1.28
						c-0.5-0.05-1.01,0.46-1.32,0.86c-0.31,0.44-0.49,0.9-0.56,1.31C943.36,779.27,943.55,779.79,943.48,779.81z"/>
				</g>
			</g>
			<g>
				<g>
					<path class="st5" d="M977.29,777.58c-0.01,0.07-0.9-0.08-2.31,0.09c-1.4,0.16-3.34,0.74-5.03,2.09
						c-1.69,1.36-2.67,3.13-3.13,4.46c-0.47,1.34-0.52,2.24-0.59,2.23c-0.02,0-0.04-0.23,0-0.63c0.03-0.4,0.13-0.99,0.33-1.69
						c0.4-1.39,1.39-3.26,3.15-4.67c1.76-1.41,3.8-1.97,5.24-2.07c0.73-0.05,1.32-0.02,1.72,0.04
						C977.08,777.5,977.3,777.56,977.29,777.58z"/>
				</g>
			</g>
			<g>
				<g>
					<path class="st5" d="M962.25,783.64c0.01,0.1-2.02,0.42-4.56,0.43c-2.54,0.02-4.58-0.29-4.57-0.38
						c0.01-0.11,2.05,0.02,4.57,0.01C960.2,783.68,962.24,783.53,962.25,783.64z"/>
				</g>
			</g>
			<g>
				<g>
					<path class="st5" d="M968.37,783.57c0.08,0.08-0.17,0.43-0.37,0.9c-0.21,0.47-0.32,0.88-0.43,0.88c-0.1,0-0.16-0.49,0.08-1.03
						C967.9,783.78,968.31,783.5,968.37,783.57z"/>
				</g>
			</g>
			<g>
				<g>
					<path class="st5" d="M970.67,780.69c0.07,0.07-0.13,0.4-0.45,0.73c-0.32,0.33-0.64,0.54-0.72,0.46
						c-0.07-0.07,0.13-0.4,0.45-0.73C970.27,780.83,970.6,780.62,970.67,780.69z"/>
				</g>
			</g>
			<g>
				<g>
					<path class="st5" d="M973.97,779.37c-0.02,0.11-0.44,0.1-0.89,0.27c-0.46,0.15-0.79,0.41-0.87,0.34
						c-0.08-0.06,0.18-0.5,0.75-0.7C973.52,779.08,974,779.27,973.97,779.37z"/>
				</g>
			</g>
			<g>
				<g>
					<path class="st5" d="M976.32,778.74c0.04,0.1-0.14,0.26-0.4,0.36c-0.26,0.1-0.5,0.1-0.54,0.01c-0.04-0.1,0.14-0.26,0.4-0.36
						C976.04,778.65,976.28,778.64,976.32,778.74z"/>
				</g>
			</g>
		</g>
	</g>
	<g>
		<g>
			<g>
				<g>
					<path class="st6" d="M1019.63,776.45l-1.19-2.62l28.09-14.11l4.94,10.8l-1.71,0.91c-7.66,3.99-39.22,19.76-45.19,20.54
						C997.91,792.84,1019.63,776.45,1019.63,776.45z"/>
				</g>
			</g>
			<g>
				<g>
					<path class="st5" d="M1051.58,769.68c0.01,0.01-0.15,0.11-0.47,0.27c-0.41,0.22-0.86,0.45-1.37,0.72
						c-1.38,0.7-3.07,1.56-5.07,2.57c-4.3,2.14-10.27,5.01-16.94,8.04c-6.67,3.03-12.77,5.64-17.21,7.47
						c-2.08,0.84-3.84,1.55-5.27,2.13c-0.54,0.21-1.01,0.39-1.44,0.55c-0.33,0.12-0.51,0.18-0.51,0.17c0-0.01,0.16-0.09,0.48-0.24
						c0.42-0.19,0.89-0.39,1.42-0.62c1.42-0.61,3.16-1.36,5.22-2.24c4.41-1.89,10.49-4.54,17.15-7.57
						c6.66-3.03,12.66-5.86,16.98-7.94c2.02-0.97,3.73-1.79,5.12-2.46c0.52-0.24,0.98-0.46,1.4-0.66
						C1051.4,769.74,1051.57,769.66,1051.58,769.68z"/>
				</g>
			</g>
			<g>
				<g>
					<path class="st5" d="M1013.59,787.84c-0.1,0.06-0.74-1.14-2.09-2.03c-1.33-0.92-2.68-1.07-2.66-1.18
						c-0.02-0.09,1.44-0.11,2.87,0.87C1013.16,786.46,1013.68,787.82,1013.59,787.84z"/>
				</g>
			</g>
			<g>
				<g>
					<path class="st5" d="M1020.06,779.77c-0.06,0.09-0.68-0.22-1.39-0.69c-0.71-0.47-1.24-0.91-1.18-1
						c0.06-0.09,0.68,0.22,1.39,0.68C1019.58,779.24,1020.11,779.69,1020.06,779.77z"/>
				</g>
			</g>
			<g>
				<g>
					<path class="st5" d="M1021.81,777.51c-0.03,0.1-0.62,0-1.31-0.21c-0.69-0.22-1.22-0.48-1.19-0.58c0.03-0.1,0.62,0,1.31,0.21
						C1021.3,777.15,1021.84,777.41,1021.81,777.51z"/>
				</g>
			</g>
			<g>
				<g>
					<path class="st5" d="M1022.05,774.16c0.04,0.1-0.58,0.48-1.4,0.86c-0.82,0.38-1.52,0.61-1.56,0.52
						c-0.04-0.09,0.58-0.48,1.4-0.86C1021.3,774.3,1022,774.07,1022.05,774.16z"/>
				</g>
			</g>
			<g>
				<g>
					<path class="st5" d="M1021.69,772.04c0.07,0.07-0.51,0.73-1.44,1.23c-0.93,0.51-1.79,0.64-1.81,0.55
						c-0.03-0.11,0.75-0.39,1.63-0.88C1020.95,772.46,1021.61,771.96,1021.69,772.04z"/>
				</g>
			</g>
			<g>
				<g>
					<path class="st5" d="M1017.96,777.73c0.02,0.04-0.64,0.44-1.83,0.82c-0.59,0.19-1.32,0.36-2.14,0.45
						c-0.41,0.03-0.83,0.11-1.32,0.05c-0.24-0.04-0.51-0.12-0.71-0.36c-0.2-0.24-0.19-0.61-0.05-0.86c1.34-1.7,3.53-1.51,4.59-0.9
						c0.57,0.3,0.93,0.67,1.15,0.95c0.22,0.28,0.29,0.46,0.27,0.47c-0.05,0.05-0.45-0.66-1.54-1.18c-0.54-0.25-1.25-0.41-2.02-0.31
						c-0.73,0.1-1.68,0.47-2.11,1.14c-0.19,0.35,0.08,0.64,0.49,0.68c0.39,0.06,0.83,0,1.23-0.03c0.8-0.08,1.51-0.21,2.11-0.36
						C1017.24,777.99,1017.94,777.67,1017.96,777.73z"/>
				</g>
			</g>
			<g>
				<g>
					<path class="st5" d="M1017.53,778.03c-0.02,0.03-0.5-0.31-0.79-1.17c-0.14-0.42-0.21-0.97-0.11-1.56
						c0.14-0.55,0.3-1.3,1.1-1.62c0.45-0.14,1.5,0.76,1.57,1.1c0.11,0.34-0.53,0.16-0.56,0.44c-0.06,0.58-0.2,1.09-0.36,1.5
						c-0.32,0.82-0.68,1.24-0.71,1.21c-0.05-0.03,0.22-0.49,0.46-1.3c0.12-0.4,0.23-0.89,0.27-1.44c0.08-0.5-0.07-1.27-0.56-1.15
						c-0.48,0.16-0.74,0.83-0.85,1.32c-0.11,0.53-0.07,1.02,0.02,1.42C1017.2,777.6,1017.59,777.99,1017.53,778.03z"/>
				</g>
			</g>
			<g>
				<g>
					<path class="st5" d="M1047.46,762.15c0.02,0.07-0.85,0.29-2.07,1.03c-1.21,0.72-2.75,2.05-3.73,3.97
						c-0.98,1.93-1.16,3.95-1.03,5.35c0.12,1.42,0.45,2.26,0.38,2.28c-0.02,0.01-0.12-0.19-0.26-0.57
						c-0.14-0.38-0.29-0.95-0.39-1.68c-0.2-1.43-0.07-3.54,0.96-5.55c1.03-2.01,2.66-3.35,3.93-4.03c0.64-0.35,1.19-0.56,1.58-0.67
						C1047.24,762.16,1047.46,762.13,1047.46,762.15z"/>
				</g>
			</g>
			<g>
				<g>
					<path class="st5" d="M1036.22,773.84c0.05,0.08-1.67,1.22-3.98,2.27c-2.31,1.06-4.3,1.61-4.33,1.52
						c-0.04-0.1,1.88-0.82,4.17-1.86C1034.37,774.72,1036.17,773.75,1036.22,773.84z"/>
				</g>
			</g>
			<g>
				<g>
					<path class="st5" d="M1041.78,771.27c0.1,0.04,0.03,0.46,0.03,0.98c0,0.51,0.07,0.94-0.03,0.98c-0.09,0.04-0.35-0.38-0.35-0.98
						C1041.43,771.66,1041.69,771.23,1041.78,771.27z"/>
				</g>
			</g>
			<g>
				<g>
					<path class="st5" d="M1042.7,767.7c0.1,0.04,0.05,0.42-0.11,0.85c-0.16,0.43-0.37,0.75-0.47,0.72
						c-0.1-0.04-0.05-0.42,0.11-0.85C1042.39,767.99,1042.6,767.67,1042.7,767.7z"/>
				</g>
			</g>
			<g>
				<g>
					<path class="st5" d="M1045.16,765.14c0.02,0.11-0.36,0.27-0.71,0.61c-0.36,0.33-0.55,0.7-0.66,0.66
						c-0.1-0.02-0.04-0.53,0.4-0.94C1044.64,765.06,1045.15,765.04,1045.16,765.14z"/>
				</g>
			</g>
			<g>
				<g>
					<path class="st5" d="M1047.05,763.61c0.07,0.07-0.02,0.29-0.22,0.49c-0.19,0.2-0.41,0.3-0.49,0.23
						c-0.07-0.07,0.02-0.29,0.22-0.49C1046.76,763.64,1046.97,763.54,1047.05,763.61z"/>
				</g>
			</g>
		</g>
	</g>
	<g>
		<g>
			<g>
				<g>
					<g>
						<g>
							<g>
								<g>
									<path class="st4" d="M1011.89,399.76l-5.23-63.81l26.86,0.48c0,0,1.25-9.41-2.71-30.05
										c-2.43-12.66-10.86-20.42-20.31-25.03l0-0.17l-0.82-0.21c-12.02-5.63-24.61-6.42-24.61-6.42l-32.97,0.38
										c0,0-25.19-3.14-39.13,14.81c-5.37,6.92-21.99,54.26-21.99,54.26l39.58,19.06l-3.77-26.25c0,0,0.75,19.04,3.18,25.07
										c1.35,3.36,5.27,13.79,5.27,13.79l-0.51,31.49L1011.89,399.76z"/>
								</g>
							</g>
						</g>
					</g>
				</g>
				<g>
					<polygon class="st4" points="993.7,326.69 988.8,347.54 1034.98,347.54 1031.94,312.58 					"/>
				</g>
				<g>
					<g>
						<path class="st5" d="M1034.98,347.54c0.01-0.14-2.33-0.38-6.11-0.6c-3.78-0.22-9.02-0.41-14.81-0.38
							c-5.79,0.03-11.03,0.28-14.81,0.58c-3.78,0.3-6.11,0.62-6.1,0.75c0.01,0.15,2.35,0.08,6.14-0.03c3.78-0.12,9-0.25,14.77-0.28
							c5.77-0.03,10.99,0.05,14.78,0.08C1032.62,347.69,1034.97,347.68,1034.98,347.54z"/>
					</g>
				</g>
				<g>
					<g>
						<path class="st5" d="M991.71,312.41c-0.14,0.01-0.19,2.03-0.15,5.3c0.03,3.27,0.15,7.79,0.35,12.78
							c0.19,4.99,0.43,9.5,0.65,12.77c0.22,3.26,0.42,5.28,0.57,5.28c0.14-0.01,0.19-2.03,0.15-5.3c-0.03-3.27-0.15-7.79-0.35-12.78
							c-0.19-4.99-0.43-9.5-0.64-12.76C992.05,314.42,991.85,312.4,991.71,312.41z"/>
					</g>
				</g>
				<g class="st9">
					<path d="M949.69,330.47c0,0,10.26,76.09,39.11,74.08c0,0,12.99-0.15,17.17-8.79v-3.4L949.69,330.47z"/>
				</g>
			</g>
		</g>
		<g class="st9">
			<polygon points="991.71,316.89 986.18,354.2 989.76,360.74 995.64,347.94 993.15,347.88 			"/>
		</g>
		<g>
			<g>
				<path class="st5" d="M935.24,375.68c-0.06,0.02-0.34-0.61-0.78-1.78c-0.45-1.17-1.04-2.87-1.73-4.99
					c-1.38-4.25-3.08-10.19-4.42-16.88c-1.33-6.7-1.98-12.86-2.19-17.32c-0.11-2.23-0.14-4.04-0.11-5.29
					c0.02-1.25,0.07-1.94,0.13-1.94c0.15,0,0.25,2.75,0.63,7.19c0.38,4.43,1.13,10.53,2.44,17.19c1.33,6.65,2.92,12.59,4.13,16.87
					c0.57,1.99,1.05,3.68,1.45,5.07C935.14,374.98,935.3,375.65,935.24,375.68z"/>
			</g>
		</g>
		<g>
			<g>
				<path class="st5" d="M946.91,397.54c-0.25,0.07-0.96-1.57-1.6-3.67c-0.63-2.1-0.95-3.86-0.7-3.94c0.25-0.07,0.96,1.57,1.6,3.67
					C946.84,395.7,947.15,397.47,946.91,397.54z"/>
			</g>
		</g>
		<g>
			<g>
				<path class="st5" d="M950.89,397.25c-0.24,0.06-1.02-2.4-1.06-5.56c-0.05-3.16,0.65-5.65,0.89-5.59
					c0.27,0.05-0.01,2.53,0.04,5.58C950.81,394.72,951.16,397.19,950.89,397.25z"/>
			</g>
		</g>
		<g>
			<g>
				<path class="st5" d="M931.36,363.94c-0.11,0.23-9.33-4.14-20.57-9.76c-11.25-5.62-20.27-10.36-20.16-10.59
					c0.11-0.23,9.32,4.14,20.57,9.76C922.45,358.97,931.48,363.71,931.36,363.94z"/>
			</g>
		</g>
	</g>
	<g>
		<g>
			<g>
				<g>
					<g>
						<g>
							<g>
								<g>
									<g>
										<path class="st7" d="M947.59,281.1c0.21-9.04,0.26-18.57,0.26-18.57s-11.6-2.24-13.62-17.5
											c-1.93-14.55,3.46-48.71,3.46-48.71l0,0c16.94-6.4,34.55-0.6,46.16,13.13l0,0l-2.88,73.42
											c-0.33,8.52-7.93,15.02-17.05,14.6h0C954.7,297.05,947.4,289.72,947.59,281.1z"/>
									</g>
								</g>
							</g>
							<g>
								<g>
									<g>
										<g>
											<path class="st5" d="M936.81,223.62c-0.06,1.03,0.76,1.93,1.83,2.02c1.07,0.09,1.99-0.68,2.05-1.71
												c0.06-1.03-0.76-1.93-1.83-2.02C937.8,221.83,936.88,222.6,936.81,223.62z"/>
										</g>
									</g>
								</g>
								<g>
									<g>
										<g>
											<g>
												<path class="st5" d="M936.09,221.06c0.24,0.26,1.74-0.79,3.84-0.73c2.1,0.03,3.61,1.15,3.84,0.9
													c0.11-0.11-0.12-0.58-0.78-1.08c-0.65-0.5-1.76-1-3.07-1.03c-1.31-0.03-2.42,0.43-3.06,0.9
													C936.2,220.49,935.97,220.95,936.09,221.06z"/>
											</g>
										</g>
									</g>
								</g>
							</g>
							<g>
								<g>
									<g>
										<g>
											<path class="st5" d="M958.09,224.95c-0.06,1.03,0.76,1.93,1.83,2.02c1.07,0.09,1.99-0.68,2.05-1.71s-0.76-1.93-1.83-2.02
												C959.08,223.16,958.16,223.92,958.09,224.95z"/>
										</g>
									</g>
								</g>
								<g>
									<g>
										<g>
											<g>
												<path class="st5" d="M957.95,222.39c0.24,0.26,1.74-0.79,3.84-0.73c2.1,0.03,3.61,1.15,3.84,0.9
													c0.11-0.11-0.12-0.58-0.78-1.08c-0.65-0.5-1.76-1-3.07-1.03c-1.31-0.03-2.42,0.43-3.06,0.9
													C958.07,221.82,957.84,222.27,957.95,222.39z"/>
											</g>
										</g>
									</g>
								</g>
							</g>
							<g>
								<g>
									<g>
										<g>
											<path class="st5" d="M949.94,237.75c0.01-0.12-1.29-0.38-3.39-0.7c-0.53-0.07-1.04-0.19-1.12-0.56
												c-0.12-0.39,0.12-0.96,0.4-1.58c0.54-1.28,1.1-2.63,1.69-4.04c2.35-5.75,4.07-10.48,3.83-10.58
												c-0.23-0.09-2.33,4.49-4.67,10.24c-0.57,1.42-1.11,2.77-1.62,4.06c-0.22,0.6-0.58,1.28-0.33,2.09
												c0.13,0.4,0.52,0.7,0.86,0.81c0.34,0.11,0.64,0.13,0.91,0.15C948.61,237.82,949.93,237.87,949.94,237.75z"/>
										</g>
									</g>
								</g>
							</g>
							<g>
								<g>
									<g>
										<path class="st8" d="M947.85,262.53c0,0,10.21,0.92,20.5-4.9c0,0-5.21,10.31-20.38,8.5L947.85,262.53z"/>
									</g>
								</g>
							</g>
						</g>
					</g>
				</g>
			</g>
		</g>
		<g>
			<g>
				<path class="st5" d="M964.67,216.34c-0.43,0.66-2.03,0.37-3.81,0.04c-1.78-0.36-3.37-0.68-3.53-1.44
					c-0.18-0.74,1.67-1.76,4.05-1.3C963.76,214.09,965.1,215.72,964.67,216.34z"/>
			</g>
		</g>
		<g>
			<g>
				<path class="st5" d="M943.81,213.26c-0.16,0.76-1.87,1.04-3.84,1.14c-1.97,0.08-3.7-0.04-3.93-0.79c-0.24-0.72,1.43-1.9,3.8-2
					C942.21,211.5,943.98,212.52,943.81,213.26z"/>
			</g>
		</g>
		<g>
			<path class="st8" d="M949.97,242.77c-0.44-0.12-0.94,0.13-1.16,0.53c-0.26,0.48-0.14,1.13,0.27,1.49
				c0.42,0.35,1.09,0.36,1.51,0.02c0.43-0.34,0.57-0.99,0.32-1.48c-0.25-0.49-0.86-0.75-1.39-0.6"/>
		</g>
		<g>
			<g>
				<path class="st5" d="M950.46,242.98c0.09-0.08-0.34-0.6-1.25-0.4c-0.42,0.09-0.98,0.47-1.15,1.12c-0.17,0.61-0.02,1.4,0.63,1.9
					c0.67,0.47,1.48,0.38,2.01,0.01c0.57-0.38,0.73-1.06,0.64-1.49c-0.18-0.94-0.88-1.09-0.9-0.96c-0.08,0.12,0.24,0.44,0.18,1
					c-0.03,0.27-0.16,0.53-0.43,0.66c-0.26,0.14-0.67,0.14-0.91-0.04c-0.25-0.17-0.37-0.57-0.32-0.87c0.04-0.3,0.24-0.52,0.48-0.66
					C949.96,242.97,950.4,243.11,950.46,242.98z"/>
			</g>
		</g>
		<g>
			<g>
				<path class="st5" d="M976.83,227.39c-1.81,4.19-6.22,7.42-5.61,11.94c0.4,2.92,2.27,5.64,1.9,8.57
					c-0.46,3.67-4.27,6.22-4.81,9.88c-0.66,4.49,3.71,7.98,5.45,12.17c2.54,6.1-0.71,12.96-0.79,19.57
					c-0.12,10.12,8.49,19.58,18.58,20.41c4.08,0.34,8.68-0.89,10.79-4.4c1.75-2.89,1.4-6.57,2.44-9.78
					c1.56-4.78,6.12-8.29,7.08-13.22c1.75-9-9.13-16.45-8.41-25.6c0.31-3.91,2.72-7.32,3.74-11.1c1.34-4.96,0.11-10.54-3.19-14.46
					c-2.69-3.19-6.58-5.29-8.87-8.78c-2.59-3.96-2.68-8.98-3.66-13.6c-2.38-11.28-10.86-21.08-21.67-25.07
					c-10.82-3.99-23.62-2.04-32.76,4.99c0,0-2.6,11.78,9.49,13.75c12.09,1.97,17.7-0.3,19.06,4.54c0,0-1.38,5.66,3.62,11.07
					C974.22,223.67,978.92,222.54,976.83,227.39z"/>
			</g>
			<g>
				<g>
					<path class="st6" d="M996.13,309.11c0,0.03-0.38-0.01-1.1-0.12c-0.72-0.11-1.77-0.35-3.08-0.83c-2.58-0.94-6.24-3-9.36-6.93
						c-1.55-1.95-3-4.31-3.98-7.08c-1-2.76-1.57-5.88-1.63-9.18c-0.08-3.3,0.39-6.75,1.29-10.21c0.45-1.73,1.03-3.46,1.71-5.17
						c0.67-1.72,1.49-3.38,1.96-5.14c0.51-1.75,0.44-3.54-0.02-5.24c-0.47-1.71-1.26-3.31-2.03-4.89c-0.78-1.58-1.57-3.16-2.08-4.84
						c-0.52-1.67-0.72-3.46-0.38-5.14c0.71-3.37,2.76-5.86,3.96-8.42c1.28-2.53,1.68-5.21,1.62-7.61
						c-0.22-4.87-2.29-8.47-3.99-10.55c-1.77-2.08-3.11-2.87-3.04-2.96c0,0,1.42,0.67,3.31,2.72c1.82,2.05,4.06,5.7,4.37,10.75
						c0.11,2.49-0.27,5.31-1.58,7.98c-1.23,2.65-3.21,5.16-3.82,8.24c-0.63,3.1,0.84,6.3,2.43,9.42c0.78,1.59,1.6,3.23,2.11,5.05
						c0.5,1.81,0.57,3.86,0.02,5.73c-0.51,1.88-1.35,3.56-2,5.24c-0.67,1.68-1.24,3.37-1.69,5.06c-0.89,3.38-1.36,6.75-1.31,9.96
						c0.02,6.44,2.23,12.08,5.26,15.86c2.97,3.88,6.48,5.97,8.97,7C994.61,308.85,996.15,309,996.13,309.11z"/>
				</g>
			</g>
			<g>
				<g>
					<path class="st6" d="M994.34,218.9c0.01,0.06-0.94,0.23-2.66,0.4c-1.72,0.14-4.26,0.34-7.36-0.19
						c-3.03-0.55-6.86-2.04-9.29-5.64c-1.19-1.8-1.66-3.99-2.44-6c-0.73-2.04-2.14-3.8-4.07-5.03c-3.91-2.48-8.51-2.78-12.54-3.27
						c-4.05-0.46-7.84-1.31-10.42-3.25c-2.59-1.85-3.92-4.24-4.27-5.97c-0.2-0.86-0.18-1.56-0.14-2.02
						c0.06-0.46,0.11-0.69,0.15-0.69c0.11,0-0.12,0.98,0.34,2.62c0.43,1.62,1.78,3.83,4.29,5.52c2.48,1.76,6.11,2.52,10.14,2.93
						c3.99,0.45,8.75,0.7,12.94,3.34c2.07,1.29,3.67,3.31,4.42,5.48c0.8,2.13,1.24,4.22,2.31,5.87c2.18,3.33,5.78,4.85,8.69,5.45
						c2.99,0.6,5.5,0.51,7.21,0.48C993.38,218.88,994.34,218.83,994.34,218.9z"/>
				</g>
			</g>
			<g>
				<g>
					<path class="st6" d="M989.91,204.35c0.01,0.05-0.72,0.27-2.09,0.31c-1.36,0.04-3.4-0.2-5.64-1.27
						c-1.12-0.53-2.27-1.29-3.32-2.31c-1.07-1.01-1.95-2.32-2.77-3.7c-1.61-2.72-3.16-6.07-6.51-7.46
						c-3.28-1.4-6.88-1.09-10.01-0.88c-3.16,0.31-6.13,0.4-8.55-0.07c-2.43-0.42-4.26-1.43-5.27-2.37
						c-0.51-0.46-0.86-0.87-1.05-1.18c-0.2-0.3-0.29-0.46-0.27-0.48c0.07-0.06,0.5,0.57,1.55,1.38c1.04,0.81,2.8,1.67,5.15,2
						c2.35,0.38,5.19,0.23,8.37-0.13c3.15-0.25,6.86-0.64,10.46,0.88c1.78,0.76,3.24,2.1,4.27,3.55c1.05,1.45,1.81,2.96,2.6,4.33
						c0.79,1.37,1.6,2.62,2.58,3.58c0.97,0.98,2.03,1.73,3.07,2.27c2.1,1.09,4.04,1.42,5.36,1.5
						C989.15,204.37,989.9,204.27,989.91,204.35z"/>
				</g>
			</g>
			<g>
				<g>
					<path class="st6" d="M1001.46,305.25c-0.09-0.04,0.48-1.19,1.14-3.39c0.65-2.19,1.31-5.49,1.19-9.58
						c-0.14-4.06-1.12-8.98-3.81-13.65c-1.31-2.34-3.29-4.43-4.91-7c-0.8-1.28-1.5-2.72-1.8-4.32c-0.3-1.59-0.12-3.29,0.4-4.83
						c1-3.08,2.8-5.68,3.18-8.52c0.48-2.85-0.96-5.44-2.32-7.75c-0.69-1.18-1.38-2.34-1.91-3.55c-0.53-1.22-0.88-2.5-1.01-3.73
						c-0.27-2.49,0.02-4.77,0.2-6.82c0.52-4.08,0.14-7.44-0.85-9.5c-0.95-2.09-2.2-2.71-2.11-2.8c0.01-0.01,0.08,0.02,0.22,0.1
						c0.13,0.09,0.34,0.2,0.57,0.41c0.48,0.39,1.11,1.08,1.65,2.13c1.13,2.09,1.62,5.6,1.18,9.71c-0.14,2.06-0.39,4.31-0.09,6.67
						c0.24,2.38,1.46,4.62,2.9,6.94c0.7,1.18,1.43,2.4,1.95,3.8c0.53,1.38,0.77,2.96,0.54,4.51c-0.44,3.13-2.28,5.77-3.2,8.68
						c-0.48,1.45-0.63,2.94-0.37,4.38c0.27,1.43,0.9,2.77,1.66,4c1.53,2.47,3.53,4.6,4.88,7.05c2.74,4.85,3.67,9.91,3.73,14.06
						c0.03,4.18-0.73,7.52-1.5,9.71c-0.4,1.09-0.74,1.93-1.03,2.47C1001.64,304.98,1001.49,305.26,1001.46,305.25z"/>
				</g>
			</g>
		</g>
	</g>
	<g>
		<g>
			<path class="st5" d="M928.65,638.32c0,0-12.04-114.12-12.73-156.29c-0.69-42.17,18.96-83.78,18.96-83.78l77.01-3.26
				c0,0,15.22,42.79,15.49,60.76c0.53,34.93-9.28,69.42-8.15,97.12l2.57,85.44"/>
		</g>
		<g>
			<g>
				<path class="st10" d="M1024.39,498.02c0.02,0.03-0.42,0.36-1.26,0.95c-0.22,0.15-0.45,0.32-0.7,0.5
					c-0.24,0.2-0.48,0.46-0.75,0.72c-0.54,0.52-1.17,1.11-1.72,1.92c-2.49,3.05-4.3,8.49-6.02,15.28c-0.95,3.37-1.91,7.15-3.9,10.86
					c-0.53,0.9-1.01,1.86-1.71,2.7c-0.33,0.43-0.64,0.89-1.01,1.3l-1.19,1.18c-1.61,1.58-3.64,2.77-5.79,3.72
					c-4.31,1.89-9.18,2.79-13.62,5.02c-4.47,2.18-7.83,6.4-9.88,11.27c-2.17,4.84-3.48,9.93-5.29,14.68
					c-1.78,4.71-4.2,9.3-8.04,12.19c-3.81,3-8.52,3.69-12.6,3.95c-4.15,0.24-7.99,0.12-11.43,0.64c-3.43,0.48-6.47,1.56-8.62,3.25
					c-2.15,1.7-3.41,3.82-4.01,5.64c-0.61,1.84-0.5,3.39-0.3,4.38c0.2,1,0.48,1.48,0.42,1.51c0,0-0.34-0.45-0.6-1.47
					c-0.27-1-0.45-2.61,0.13-4.53c0.56-1.9,1.81-4.13,4.03-5.94c2.22-1.81,5.35-2.97,8.85-3.5c3.51-0.57,7.39-0.49,11.48-0.76
					c4.04-0.29,8.55-1,12.13-3.86c3.63-2.76,5.96-7.17,7.71-11.83c1.78-4.69,3.08-9.79,5.3-14.73c2.08-4.95,5.63-9.44,10.32-11.7
					c4.62-2.3,9.49-3.16,13.69-4.99c2.09-0.91,4.04-2.03,5.58-3.53l1.14-1.12c0.35-0.39,0.65-0.83,0.97-1.24
					c0.68-0.8,1.15-1.73,1.67-2.59c1.96-3.57,2.96-7.31,3.94-10.67c1.8-6.75,3.74-12.28,6.37-15.32c0.58-0.81,1.24-1.39,1.81-1.9
					c0.29-0.25,0.53-0.5,0.79-0.7c0.27-0.17,0.51-0.32,0.74-0.47C1023.9,498.26,1024.37,497.99,1024.39,498.02z"/>
			</g>
		</g>
		<g>
			<g>
				<path class="st10" d="M1024.86,445.21c0.03,0,0.07,0.52,0.1,1.53c0.02,1-0.11,2.5-0.53,4.37c-0.89,3.72-3.61,8.83-8.7,13.45
					c-2.51,2.32-5.55,4.57-9.02,6.59c-3.45,2.05-7.26,4-11.16,6.2c-3.89,2.21-7.89,4.71-11.42,8.03c-3.57,3.28-6.24,7.59-8.65,12.15
					c-2.43,4.56-4.58,9.19-7.5,13.21c-1.45,2.01-3.08,3.84-4.89,5.41c-1.82,1.56-3.8,2.82-5.81,3.87c-4.04,2.1-8.16,3.39-11.97,4.59
					c-3.82,1.18-7.39,2.23-10.5,3.53c-3.12,1.29-5.82,2.74-8.01,4.29c-2.19,1.55-3.85,3.17-5.03,4.64
					c-2.38,2.95-2.88,5.09-3.02,5.01c-0.03-0.01,0.14-0.51,0.5-1.45c0.41-0.91,1.05-2.27,2.23-3.79c1.16-1.53,2.82-3.22,5.01-4.84
					c2.19-1.61,4.92-3.13,8.06-4.47c3.14-1.36,6.72-2.45,10.53-3.66c3.79-1.22,7.86-2.54,11.8-4.61c1.96-1.04,3.88-2.28,5.63-3.79
					c1.74-1.52,3.32-3.3,4.73-5.26c2.84-3.93,4.97-8.53,7.42-13.11c2.41-4.58,5.16-9.01,8.84-12.38c3.62-3.39,7.7-5.91,11.62-8.11
					c3.94-2.2,7.75-4.12,11.19-6.12c3.45-1.97,6.46-4.15,8.97-6.41c5.07-4.49,7.81-9.43,8.79-13.06
					C1025.04,447.35,1024.72,445.2,1024.86,445.21z"/>
			</g>
		</g>
		<g>
			<g>
				<path class="st10" d="M916.3,488.07c-0.02,0.01-0.07-0.11-0.16-0.35c-0.08-0.24-0.24-0.58-0.35-1.06
					c-0.22-0.95-0.35-2.46,0.18-4.29c0.99-3.64,4.95-8.17,11.32-10.44c3.17-1.09,6.77-1.75,10.51-2.73c3.7-1,7.74-2.4,10.75-5.49
					c1.5-1.53,2.76-3.35,3.82-5.35c1.02-2.02,1.87-4.19,2.67-6.42c1.6-4.46,2.95-9.3,5.67-13.71c2.7-4.44,7.1-7.52,11.66-9.07
					c4.54-1.67,9.13-2.41,13.38-3.39c4.27-0.93,8.25-2.13,11.63-3.96c3.34-1.9,5.99-4.42,7.87-7.09c3.86-5.36,4.86-10.85,5-14.48
					c0.08-3.69-0.5-5.7-0.38-5.71c0,0,0.71,1.97,0.74,5.72c-0.03,3.68-0.95,9.31-4.83,14.85c-1.9,2.77-4.6,5.4-8.03,7.38
					c-3.47,1.92-7.54,3.17-11.82,4.12c-4.27,1.01-8.83,1.77-13.25,3.41c-4.45,1.53-8.59,4.45-11.19,8.71
					c-2.63,4.24-3.97,9.03-5.6,13.52c-0.81,2.25-1.68,4.45-2.74,6.53c-1.09,2.06-2.42,3.95-4,5.55c-3.2,3.25-7.42,4.65-11.16,5.63
					c-3.8,0.96-7.38,1.57-10.5,2.61c-6.2,2.12-10.13,6.46-11.18,9.92c-0.57,1.74-0.5,3.19-0.34,4.14
					C916.19,487.56,916.35,488.06,916.3,488.07z"/>
			</g>
		</g>
		<g>
			<g>
				<path class="st10" d="M1018.24,584.57c0.03,0,0.07,0.38,0.12,1.12c0.04,0.74-0.02,1.84-0.33,3.23
					c-0.63,2.75-2.76,6.52-6.76,9.66c-1.97,1.59-4.35,3.04-7.09,4.21c-2.73,1.17-5.75,2.1-8.9,3.08c-3.15,0.98-6.45,2.01-9.67,3.53
					c-3.24,1.48-6.22,3.65-8.8,6.42c-2.61,2.73-4.86,5.72-7.35,8.35c-2.48,2.65-5.31,4.83-8.24,6.45c-5.88,3.25-11.98,4.36-17,4.42
					c-5.06,0.05-9.07-1.01-11.7-1.94c-1.33-0.46-2.32-0.93-2.97-1.27c-0.66-0.33-1-0.52-0.98-0.54c0.01-0.03,0.38,0.1,1.06,0.37
					c0.67,0.29,1.68,0.69,3.01,1.1c2.64,0.82,6.61,1.77,11.57,1.63c4.93-0.14,10.88-1.3,16.59-4.51c2.85-1.6,5.57-3.72,7.99-6.32
					c2.44-2.6,4.69-5.58,7.35-8.37c2.62-2.82,5.77-5.1,9.08-6.6c3.3-1.54,6.65-2.56,9.81-3.53c3.16-0.96,6.16-1.85,8.85-2.97
					c2.68-1.11,5.03-2.5,6.98-4.01c3.95-3,6.09-6.58,6.81-9.23C1018.39,586.15,1018.11,584.56,1018.24,584.57z"/>
			</g>
		</g>
	</g>
	<g>
		<path class="st7" d="M1009.46,347.62l-14.89,0.35c-0.98,5.02-3.37,8.45-3.37,8.45c-12.45-21.61-22.11-50.57-24.5-62.21
			c0.35-1.16,0.76-2.45,1.28-3.89c0.6-1.66,0.08-4.8-0.2-6.54c-0.42-2.59-1.14-6.08-1.36-7.69c-0.66-4.92-1.46-5.69-3.17-5.13
			c-2.33,0.76,0.96,13.81-0.96,14.09c-1.03,0.15-2.28-4.32-2.65-7.99c-0.36-3.67-2.02-14.96-3.24-15.71
			c-1.78-1.1-3.33,0.64-2.88,4.3c0.45,3.7,1.03,14.73-0.91,14.88c-1.91,0.15-3.52-18.57-3.52-18.57s0.3-4.07-1.94-3.97
			c-4.05,0.18-0.89,19.91-0.54,21.78c0.24,1.3-1.86,1.54-2.05,0.13c-0.19-1.45-1.17-18.72-5.29-18.58c-3.17,0.11,2.45,16.26,0.67,20
			c-1.78,3.74-3.01-12.72-6.03-12.49c-1.12,0.09-1.96,0.3,0.11,9.62c1.11,5.01,4.37,14.21,7.23,21.83
			c4.79,25.83,25.81,108.46,58.76,93.34c18.44-8.46,25.92-45.98,25.92-45.98L1009.46,347.62z"/>
		<g>
			<g>
				<path class="st8" d="M945.91,281.01c0,0,0.15,0.03,0.43-0.06c0.25-0.08,0.75-0.39,0.67-1.03c-0.04-1.11-0.22-2.73-0.47-4.82
					c-0.19-2.1-0.82-4.63-0.82-7.62c-0.02-1.5,0.01-3.1,0.1-4.81c0.06-0.85,0.07-1.74,0.26-2.57c0.14-0.81,0.68-1.74,1.31-1.63
					l0.07,0.01l0.03,0c0.64-0.03,1.13,0.47,1.34,1.22c0.22,0.72,0.28,1.58,0.23,2.39l0,0.03l0,0.02c0.42,4.57,0.87,9.58,1.91,14.92
					c0.14,0.67,0.29,1.34,0.5,2.02c0.1,0.34,0.22,0.68,0.37,1.02c0.1,0.18,0.16,0.34,0.3,0.53c0.13,0.16,0.29,0.43,0.75,0.47
					c0.74-0.05,0.96-0.62,1.12-0.94c0.16-0.37,0.26-0.74,0.33-1.1c0.15-0.73,0.23-1.45,0.29-2.18c0.2-2.91,0.09-5.89-0.12-8.94
					c-0.07-1.54-0.45-3.08-0.19-4.48c0.12-0.69,0.41-1.38,0.88-1.67c0.23-0.14,0.49-0.17,0.77-0.1c0.14,0.04,0.28,0.1,0.42,0.18
					c0.12,0.11,0.09,0.06,0.2,0.26c0.6,1.28,0.91,2.95,1.24,4.49c0.32,1.58,0.59,3.19,0.84,4.82c0.25,1.63,0.48,3.28,0.68,4.94
					c0.16,1.66,0.4,3.4,0.82,5.08c0.21,0.85,0.45,1.69,0.81,2.53c0.18,0.42,0.37,0.84,0.74,1.26c0.13,0.18,0.55,0.52,1.07,0.39
					c0.5-0.17,0.65-0.57,0.73-0.8c0.29-1.03,0.2-1.88,0.19-2.78c-0.04-0.89-0.11-1.76-0.19-2.64c-0.13-1.51-0.27-2.99-0.32-4.46
					c-0.02-0.73-0.02-1.46,0.05-2.15c0.04-0.34,0.1-0.68,0.22-0.93c0.05-0.13,0.12-0.22,0.17-0.27c0.03-0.03,0.05-0.02,0.07-0.05
					l0.23-0.07c1.19-0.49,1.58,1.16,1.89,2.49c0.27,1.39,0.45,2.82,0.73,4.23c0.47,2.82,1.07,5.61,1.39,8.3
					c0.13,1.33,0.23,2.72-0.16,3.85c-0.42,1.29-0.84,2.57-1.25,3.83l-0.04,0.11l0.03,0.12c2.18,9.61,5.2,18.21,8,25.85
					c2.83,7.63,5.66,14.22,8.16,19.61c2.49,5.4,4.72,9.55,6.27,12.39c0.78,1.34,1.4,2.41,1.86,3.2c0.43,0.72,0.67,1.09,0.69,1.07
					c0.02-0.01-0.16-0.41-0.55-1.15c-0.43-0.81-1-1.89-1.72-3.27c-1.45-2.88-3.6-7.07-6.01-12.49c-2.42-5.41-5.17-12.02-7.93-19.64
					c-2.73-7.63-5.7-16.25-7.82-25.76l-0.01,0.23c0.41-1.25,0.83-2.51,1.25-3.78c0.48-1.46,0.34-2.88,0.22-4.28
					c-0.32-2.8-0.9-5.51-1.37-8.34c-0.28-1.4-0.45-2.83-0.73-4.3c-0.17-0.73-0.33-1.47-0.73-2.21c-0.19-0.36-0.49-0.77-0.99-0.99
					c-0.5-0.22-1.01-0.15-1.41-0.06l-0.3,0.08c-0.13,0.06-0.3,0.13-0.41,0.23c-0.23,0.2-0.36,0.42-0.45,0.64
					c-0.19,0.43-0.24,0.82-0.3,1.22c-0.09,0.79-0.08,1.55-0.06,2.31c0.05,1.52,0.2,3.02,0.32,4.52c0.07,0.87,0.15,1.74,0.18,2.6
					c0.03,0.83,0.06,1.76-0.13,2.4c-0.04,0.19-0.13,0.15-0.03,0.24l0,0.01c-0.01-0.06,0.01,0.09,0.01,0.07l0-0.02
					c0-0.02,0-0.04,0.01-0.06c0.01-0.02,0.05-0.08,0.03-0.08c-0.01,0-0.06-0.03-0.11-0.1c-0.2-0.23-0.39-0.6-0.55-0.97
					c-0.32-0.75-0.55-1.56-0.76-2.37c-0.41-1.64-0.64-3.27-0.81-4.96c-0.2-1.68-0.43-3.34-0.69-4.98c-0.26-1.64-0.54-3.26-0.86-4.87
					c-0.37-1.61-0.61-3.16-1.36-4.77c-0.05-0.16-0.37-0.52-0.56-0.63c-0.2-0.12-0.42-0.21-0.67-0.28c-0.48-0.13-1.07-0.07-1.51,0.21
					c-0.89,0.59-1.16,1.52-1.32,2.33c-0.14,0.83-0.12,1.66-0.03,2.45c0.09,0.76,0.16,1.51,0.22,2.27c0.23,3.01,0.34,5.97,0.16,8.8
					c-0.05,0.71-0.12,1.4-0.26,2.07c-0.06,0.33-0.15,0.65-0.27,0.93c-0.06,0.14-0.13,0.26-0.2,0.33c-0.07,0.15-0.12-0.03-0.12,0.21
					c0.09-0.18,0-0.08-0.07-0.24c-0.08-0.08-0.14-0.25-0.21-0.37c-0.13-0.29-0.24-0.6-0.34-0.92c-0.2-0.63-0.35-1.29-0.49-1.94
					c-1.06-5.25-1.56-10.27-2.02-14.81l0,0.06c0.04-0.92-0.02-1.8-0.29-2.66c-0.14-0.42-0.34-0.86-0.7-1.19
					c-0.35-0.34-0.87-0.5-1.32-0.48l0.1,0.01c-0.72-0.13-1.24,0.31-1.54,0.74c-0.31,0.44-0.44,0.92-0.55,1.39
					c-0.2,0.94-0.19,1.83-0.24,2.69c-0.06,1.72-0.08,3.34-0.03,4.85c0.06,3.05,0.74,5.57,0.99,7.65c0.31,2.08,0.54,3.69,0.64,4.78
					c0.11,0.52-0.3,0.85-0.52,0.94C946.06,280.98,945.91,280.99,945.91,281.01z"/>
			</g>
		</g>
	</g>
	<path class="st7" d="M829.5,372.23c0,0-4.95-0.24-10.35,1.19c-9.23,2.43-25.17,12.09-25.83,24.02h11.57c0,0-6.48,13.8-4.58,12.52
		c4.94-3.31,14.78-13.31,14.78-13.31L829.5,372.23z"/>
	<g>
		<g>
			<g>
				<path class="st5" d="M987.39,164.53c-0.26,0.02-1.31-9.55-2.35-21.37c-1.04-11.83-1.68-21.43-1.42-21.46
					c0.26-0.02,1.31,9.55,2.35,21.37C987.01,154.9,987.64,164.51,987.39,164.53z"/>
			</g>
		</g>
		<g>
			<g>
				<path class="st5" d="M1038.17,122.29c0.21,0.15-7.61,11.5-17.47,25.35c-9.86,13.85-18.02,24.96-18.23,24.81
					c-0.21-0.15,7.61-11.5,17.47-25.35C1029.8,133.25,1037.96,122.14,1038.17,122.29z"/>
			</g>
		</g>
		<g>
			<g>
				<path class="st5" d="M1059.27,173.73c0.05,0.25-9.07,2.34-20.38,4.66c-11.31,2.32-20.52,4-20.57,3.75
					c-0.05-0.25,9.07-2.34,20.38-4.66C1050,175.16,1059.21,173.48,1059.27,173.73z"/>
			</g>
		</g>
	</g>
</g>
<g>
	<g>
		<path class="st4" d="M451.3,419.26l-63.21,324.98l-8.27,42.54l421.98-2.08c18.94-0.09,35.72-16.91,41.81-41.89L918.43,436
			c4.63-18.97-5.52-38.69-19.9-38.68l-427.09,0.45C462.01,397.78,453.77,406.58,451.3,419.26z"/>
	</g>
	<g class="st11">
		<path d="M451.3,419.26l-63.21,324.98l-8.27,42.54l421.98-2.08c18.94-0.09,35.72-16.91,41.81-41.89L918.43,436
			c4.63-18.97-5.52-38.69-19.9-38.68l-427.09,0.45C462.01,397.78,453.77,406.58,451.3,419.26z"/>
	</g>
	<g>
		<path class="st4" d="M761.31,722.22l-44.68-360.03c-1.83-14.75-13.58-25.76-27.46-25.71l-97.97,0.32
			c-7.25,0.02-14.2,3.11-19.35,8.58l-46.52,49.45l-272.47,1.42c-16.65,0.09-29.44,15.84-27.24,33.54l41.48,332.76
			c1.84,14.73,13.57,25.72,27.42,25.69l474.86-0.94c52.89,1.1,57.94-14.52,57.94-14.52C766.72,786.22,761.32,722.26,761.31,722.22z"
			/>
	</g>
	<g class="st11">
		<polygon class="st12" points="556.56,650.17 540.54,667.37 417.2,556.4 433.21,539.2 		"/>
		<polygon class="st12" points="533.83,535.39 551.53,551.31 439.92,671.18 422.22,655.26 		"/>
	</g>
</g>
<g>
	<g>
		<g>
			<g>
				<path class="st4" d="M829.12,185.52c-1.14-0.49-1.96-1.6-2.02-2.92L826.39,166c-0.05-1.04,0.4-2.05,1.21-2.71
					c0.8-0.67,1.88-0.92,2.89-0.68c2.67,0.63,5.61,0.05,8.07-1.6c2.27-1.51,3.79-3.74,4.17-6.11c0.39-2.36-0.35-4.98-2.01-7.18
					c-1.78-2.35-4.41-3.94-7.04-4.24c-5.38-0.62-11.19,3.5-12.69,9.01c-0.48,1.78-2.31,2.83-4.09,2.34
					c-1.81-0.5-2.83-2.32-2.34-4.09c2.35-8.65,11.27-14.88,19.89-13.88c4.47,0.51,8.7,3.01,11.6,6.85
					c2.76,3.65,3.95,8.12,3.27,12.27c-0.68,4.19-3.25,8.05-7.05,10.59c-2.75,1.83-5.9,2.84-9.05,2.95l0.55,12.79
					c0.08,1.84-1.35,3.4-3.19,3.47C830.06,185.81,829.57,185.71,829.12,185.52z"/>
			</g>
		</g>
		<g>
			<g>
				<path class="st4" d="M834.01,192.3c0.1,1.5-1.03,2.81-2.53,2.91c-1.5,0.1-2.81-1.03-2.91-2.54c-0.1-1.5,1.03-2.81,2.53-2.91
					C832.6,189.66,833.91,190.8,834.01,192.3z"/>
			</g>
		</g>
	</g>
	<g>
		<g>
			<g>
				<path class="st5" d="M771.68,162.12c0.02,0,0.08-0.37,0.16-1.09c0.08-0.78,0.2-1.84,0.35-3.2c0.08-1.41,0.44-3.12,0.86-5.14
					c0.24-1,0.36-2.11,0.72-3.24c0.35-1.13,0.72-2.34,1.11-3.61c1.73-5.02,4.4-11.04,8.89-17.03c4.46-5.98,10.73-11.88,18.77-16.35
					c3.96-2.36,8.49-4.01,13.25-5.46c4.82-1.14,9.94-2.12,15.28-1.99c2.67-0.14,5.37,0.25,8.11,0.48c1.37,0.13,2.72,0.5,4.1,0.74
					c1.38,0.25,2.76,0.52,4.11,0.99c5.52,1.42,10.88,4.02,15.99,7.25c10.26,6.45,18.89,16.95,23.63,29.67
					c2.38,6.37,3.51,13.34,3.5,20.39c0.14,7.06-1.23,14.24-3.74,20.99l-0.81,2.04l-0.11,0.27l0.11,0.25
					c4.48,10.33,8.88,20.45,13.14,30.27l0.75-0.85c-9.23-3.55-18.18-6.99-26.77-10.29l-0.33-0.13l-0.26,0.25
					c-7.43,7.2-16.3,12.06-25.28,14.6c-9.01,2.54-18.08,2.67-26.34,1.2c-8.27-1.46-15.72-4.63-21.93-8.69
					c-6.23-4.07-11.22-9.01-15.07-14.04c-3.82-5.08-6.34-10.29-8.24-14.94c-1.67-4.76-2.7-8.97-3.2-12.47
					c-0.21-1.74-0.4-3.3-0.56-4.65c-0.04-1.34-0.06-2.47-0.09-3.42c-0.03-0.88-0.05-1.57-0.07-2.09
					C771.72,162.36,771.7,162.12,771.68,162.12c-0.02,0-0.03,0.24-0.04,0.71c-0.01,0.52-0.02,1.22-0.03,2.1c0,0.95,0,2.09-0.01,3.44
					c0.14,1.36,0.29,2.93,0.47,4.69c0.44,3.53,1.42,7.8,3.05,12.62c1.87,4.72,4.37,10.02,8.2,15.19
					c3.86,5.12,8.89,10.17,15.18,14.33c6.28,4.16,13.82,7.42,22.22,8.95c8.38,1.53,17.6,1.43,26.78-1.12
					c9.15-2.55,18.2-7.48,25.79-14.8l-0.59,0.12c8.58,3.31,17.53,6.77,26.76,10.33l1.35,0.52l-0.6-1.37
					c-4.26-9.82-8.65-19.95-13.12-30.28l0,0.52l0.82-2.09c2.57-6.9,3.96-14.24,3.82-21.46c0-7.2-1.17-14.34-3.6-20.84
					c-4.85-13-13.69-23.68-24.15-30.22c-5.21-3.27-10.68-5.9-16.3-7.33c-1.38-0.47-2.78-0.74-4.19-0.99
					c-1.4-0.24-2.78-0.61-4.17-0.73c-2.79-0.22-5.53-0.61-8.24-0.45c-5.43-0.1-10.62,0.91-15.52,2.1c-4.82,1.5-9.41,3.2-13.41,5.62
					c-8.14,4.59-14.45,10.62-18.91,16.71c-4.49,6.1-7.13,12.22-8.8,17.31c-0.38,1.29-0.73,2.51-1.06,3.66
					c-0.35,1.14-0.46,2.26-0.68,3.28c-0.39,2.04-0.71,3.76-0.75,5.19c-0.1,1.37-0.17,2.44-0.23,3.22
					C771.67,161.75,771.66,162.12,771.68,162.12z"/>
			</g>
		</g>
	</g>
</g>
</svg>
